<ttFont>
          <CharString index="0">
            -85 callsubr
            225 -106 callgsubr
            return
          </CharString>
          <CharString index="1">
            -100 callsubr
            317 59 -161 -102 callsubr
            return
          </CharString>
          <CharString index="2">
            rmoveto
            -104 callgsubr
            return
          </CharString>
          <CharString index="3">
            24 -96 callgsubr
            return
          </CharString>
          <CharString index="4">
            -53 24 -93 callsubr
            return
          </CharString>
          <CharString index="5">
            -53 callgsubr
            113 -7 callsubr
            -211 199 -21 callsubr
            return
          </CharString>
          <CharString index="6">
            -50 callgsubr
            -150 137 -200 -400 hlineto
            -86 callsubr
            return
          </CharString>
          <CharString index="7">
            vlineto
            -103 callsubr
            return
          </CharString>
          <CharString index="8">
            99 callgsubr
            84 vlineto
            24 7 17 callsubr
            -175 -92 callgsubr
            -147 49 -200 -297 hlineto
            -53 23 -23 53 vhcurveto
            422 hlineto
            53 24 78 callsubr
            return
          </CharString>
          <CharString index="9">
            -53 -24 -81 callgsubr
            return
          </CharString>
          <CharString index="10">
            -78 callsubr
            -214 -78 callgsubr
          </CharString>
          <CharString index="11">
            -94 callsubr
            96 59 return
          </CharString>
          <CharString index="12">
            -100 callsubr
            -90 callgsubr
            return
          </CharString>
          <CharString index="13">
            -72 callsubr
            -112 -107 callgsubr
            return
          </CharString>
          <CharString index="14">
            -23 53 vhcurveto
            return
          </CharString>
          <CharString index="15">
            -95 callgsubr
            vlineto
            return
          </CharString>
          <CharString index="16">
            hlineto
            14 11 3 6 7 hvcurveto
            return
          </CharString>
          <CharString index="17">
            -13 callsubr
            112 -67 callgsubr
            -225 98 callgsubr
            258 -102 callgsubr
            255 -73 callsubr
            -271 -27 callsubr
          </CharString>
          <CharString index="18">
            8 24 hvcurveto
            return
          </CharString>
          <CharString index="19">
            -8 -26 vhcurveto
            return
          </CharString>
          <CharString index="20">
            -83 callsubr
            165 hlineto
            return
          </CharString>
          <CharString index="21">
            -103 callsubr
            429 -76 callgsubr
            return
          </CharString>
          <CharString index="22">
            -26 -7 -89 callsubr
            return
          </CharString>
          <CharString index="23">
            -53 24 -79 callsubr
          </CharString>
          <CharString index="24">
            vlineto
            53 24 -75 callgsubr
            return
          </CharString>
          <CharString index="25">
            26 7 184 callsubr
            -7 -8 -26 vhcurveto
            return
          </CharString>
          <CharString index="26">
            -50 callsubr
            -4 41 callsubr
            return
          </CharString>
          <CharString index="27">
            301 callgsubr
            126 hlineto
            95 callgsubr
            return
          </CharString>
          <CharString index="28">
            -93 callsubr
            -91 callgsubr
          </CharString>
          <CharString index="29">
            -82 callsubr
            -247 return
          </CharString>
          <CharString index="30">
            -59 426 -249 hlineto
            68 callsubr
            -201 -371 210 callgsubr
            return
          </CharString>
          <CharString index="31">
            -102 callgsubr
            272 return
          </CharString>
          <CharString index="32">
            -76 callsubr
            140 -20 callgsubr
          </CharString>
          <CharString index="33">
            vlineto
            -74 callgsubr
            return
          </CharString>
          <CharString index="34">
            vlineto
            -70 callsubr
            return
          </CharString>
          <CharString index="35">
            -26 -48 callsubr
            return
          </CharString>
          <CharString index="36">
            200 563 return
          </CharString>
          <CharString index="37">
            53 -23 23 -53 vhcurveto
            return
          </CharString>
          <CharString index="38">
            vlineto
            -52 callgsubr
            return
          </CharString>
          <CharString index="39">
            vlineto
            -45 callsubr
            return
          </CharString>
          <CharString index="40">
            10 callsubr
            -94 -74 callsubr
            425 -51 callsubr
            159 vlineto
            53 -24 20 callgsubr
          </CharString>
          <CharString index="41">
            101 callgsubr
            -286 207 3 callgsubr
            384 39 callgsubr
            -118 130 callsubr
            359 140 callsubr
            endchar
          </CharString>
          <CharString index="42">
            hlineto
            -26 -5 5 26 hvcurveto
            return
          </CharString>
          <CharString index="43">
            -84 callgsubr
            -273 hlineto
            return
          </CharString>
          <CharString index="44">
            -106 -68 callgsubr
            return
          </CharString>
          <CharString index="45">
            -24 -85 callgsubr
            return
          </CharString>
          <CharString index="46">
            hlineto
            -36 callgsubr
            return
          </CharString>
          <CharString index="47">
            211 callgsubr
            -200 -153 vlineto
            -24 -7 -8 -26 vhcurveto
            -124 14 callsubr
            endchar
          </CharString>
          <CharString index="48">
            -30 callgsubr
            -327 -71 callgsubr
            return
          </CharString>
          <CharString index="49">
            hlineto
            -60 callgsubr
            return
          </CharString>
          <CharString index="50">
            hlineto
            -38 callsubr
            return
          </CharString>
          <CharString index="51">
            53 24 -79 callgsubr
            return
          </CharString>
          <CharString index="52">
            rmoveto
            -4 callgsubr
            190 callgsubr
            196 vlineto
            return
          </CharString>
          <CharString index="53">
            -53 26 -26 53 vhcurveto
            return
          </CharString>
          <CharString index="54">
            -106 callsubr
            146 -426 201 127 callgsubr
          </CharString>
          <CharString index="55">
            35 callsubr
            -82 -65 callsubr
            61 -179 -72 -71 callgsubr
            348 -43 callsubr
            221 callgsubr
            -216 -65 callsubr
            93 -31 callgsubr
            79 -61 callsubr
            -61 178 72 -48 callgsubr
            -345 44 callgsubr
            -115 -71 callgsubr
            217 -61 callsubr
            return
          </CharString>
          <CharString index="56">
            hlineto
            -56 callsubr
            return
          </CharString>
          <CharString index="57">
            1 5 0 6 6 vvcurveto
            135 callsubr
            return
          </CharString>
          <CharString index="58">
            -28 callgsubr
            -152 vlineto
            -12 callsubr
            return
          </CharString>
          <CharString index="59">
            -8 -88 callsubr
            return
          </CharString>
          <CharString index="60">
            26 7 -5 callsubr
            return
          </CharString>
          <CharString index="61">
            -24 callsubr
            26 hvcurveto
            return
          </CharString>
          <CharString index="62">
            26 -57 callgsubr
            return
          </CharString>
          <CharString index="63">
            -5 callgsubr
            -159 288 callgsubr
            -24 -53 hvcurveto
            -141 43 callgsubr
            159 return
          </CharString>
          <CharString index="64">
            hlineto
            53 26 26 53 hvcurveto
            return
          </CharString>
          <CharString index="65">
            rmoveto
            -24 -7 -15 callgsubr
            return
          </CharString>
          <CharString index="66">
            -1 -5 0 -6 -6 vvcurveto
            return
          </CharString>
          <CharString index="67">
            -100 callsubr
            230 59 -74 -53 callgsubr
            193 276 callsubr
            127 callgsubr
          </CharString>
          <CharString index="68">
            79 callsubr
            -142 vlineto
            -24 6 -13 12 -7 vhcurveto
            -7 hlineto
            -54 -21 -27 -50 hvcurveto
            -129 -100 callsubr
            304 151 callsubr
            226 -200 -53 vlineto
            -27 -9 -9 -27 vhcurveto
            -145 -46 callsubr
            98 -68 callsubr
            return
          </CharString>
          <CharString index="69">
            -26 -6 -89 callsubr
            return
          </CharString>
          <CharString index="70">
            vlineto
            -44 callgsubr
            return
          </CharString>
          <CharString index="71">
            35 callsubr
            -108 hlineto
            16 callsubr
            108 -61 callsubr
            -274 90 3 callgsubr
            378 307 callsubr
            endchar
          </CharString>
          <CharString index="72">
            319 callgsubr
            -148 99 callsubr
            -197 hlineto
            -103 callsubr
            return
          </CharString>
          <CharString index="73">
            171 -55 callsubr
            return
          </CharString>
          <CharString index="74">
            426 -76 callsubr
            return
          </CharString>
          <CharString index="75">
            -42 callgsubr
            -194 return
          </CharString>
          <CharString index="76">
            108 326 107 -326 rlineto
            59 -182 rmoveto
            190 hlineto
            -237 622 rlineto
            -237 hlineto
            -236 -622 rlineto
            186 hlineto
            41 123 rlineto
            253 hlineto
            endchar
          </CharString>
          <CharString index="77">
            -100 callsubr
            448 -102 callgsubr
            409 return
          </CharString>
          <CharString index="78">
            26 5 5 26 vhcurveto
            return
          </CharString>
          <CharString index="79">
            26 6 callsubr
            return
          </CharString>
          <CharString index="80">
            -58 callsubr
            vlineto
            endchar
          </CharString>
          <CharString index="81">
            -38 callsubr
            123 287 28 callsubr
            -113 196 98 -3 callsubr
            return
          </CharString>
          <CharString index="82">
            -62 callsubr
            -124 -89 callgsubr
            return
          </CharString>
          <CharString index="83">
            hlineto
            -26 -7 7 return
          </CharString>
          <CharString index="84">
            hlineto
            -59 callgsubr
            return
          </CharString>
          <CharString index="85">
            -98 callsubr
            -15 callsubr
            return
          </CharString>
          <CharString index="86">
            211 -106 callgsubr
            return
          </CharString>
          <CharString index="87">
            vlineto
            -22 callgsubr
            return
          </CharString>
          <CharString index="88">
            205 callsubr
            269 -235 rlineto
            -3 -6 -7 -2 -11 hhcurveto
            return
          </CharString>
          <CharString index="89">
            -100 callsubr
            519 59 -363 -89 callgsubr
            141 -68 callsubr
            144 160 callsubr
            -90 188 99 vlineto
            337 callgsubr
            -277 -46 callsubr
            37 -106 callgsubr
            endchar
          </CharString>
          <CharString index="90">
            26 callgsubr
            106 vlineto
            endchar
          </CharString>
          <CharString index="91">
            vlineto
            -32 callgsubr
            return
          </CharString>
          <CharString index="92">
            18 callgsubr
            460 15 callgsubr
            313 callsubr
            -8 -24 hvcurveto
            -108 -92 callgsubr
            -164 14 callsubr
            return
          </CharString>
          <CharString index="93">
            -333 -53 callsubr
          </CharString>
          <CharString index="94">
            281 279 callgsubr
            return
          </CharString>
          <CharString index="95">
            -45 19 31 callgsubr
            -19 -19 -45 vvcurveto
            return
          </CharString>
          <CharString index="96">
            -25 -85 callgsubr
            return
          </CharString>
          <CharString index="97">
            rmoveto
            145 -48 callgsubr
            -412 44 callgsubr
            -464 -71 callgsubr
            412 -43 callsubr
            143 -193 -132 -16 callsubr
            -122 -65 callsubr
            442 -31 callgsubr
            122 -61 callsubr
            -134 vlineto
            endchar
          </CharString>
          <CharString index="98">
            38 83 -77 76 hhcurveto
            62 hlineto
            54 22 28 51 hvcurveto
            63 -147 -55 vlineto
            -15 -6 -6 -14 vhcurveto
            -38 -84 76 -76 hhcurveto
            -61 hlineto
            -53 -23 -27 -51 hvcurveto
            -64 148 return
          </CharString>
          <CharString index="99">
            -26 vhcurveto
            -132 -107 callgsubr
            116 59 return
          </CharString>
          <CharString index="100">
            hlineto
            26 8 -5 callsubr
            return
          </CharString>
          <CharString index="101">
            -5 -5 -26 vhcurveto
            return
          </CharString>
          <CharString index="102">
            -8 -24 hvcurveto
            return
          </CharString>
          <CharString index="103">
            41 callgsubr
            -236 -100 callsubr
            return
          </CharString>
          <CharString index="104">
            vlineto
            -35 callsubr
            return
          </CharString>
          <CharString index="105">
            199 callgsubr
            138 254 32 callgsubr
            258 467 -342 vlineto
            -27 -9 -8 -27 vhcurveto
            -123 hlineto
            215 callgsubr
            20 -27 45 vhcurveto
            100 hlineto
            -161 -202 rlineto
            200 hlineto
            167 215 rlineto
            -140 197 114 callgsubr
          </CharString>
          <CharString index="106">
            -53 24 -23 53 vhcurveto
            -17 callsubr
          </CharString>
          <CharString index="107">
            115 callsubr
            -28 vhcurveto
            -360 82 callgsubr
            203 -87 callsubr
            36 callsubr
            return
          </CharString>
          <CharString index="108">
            -32 callgsubr
            -125 -65 callsubr
            442 -31 callgsubr
            125 -61 callsubr
            return
          </CharString>
          <CharString index="109">
            -53 24 58 callgsubr
            return
          </CharString>
          <CharString index="110">
            622 rmoveto
            return
          </CharString>
          <CharString index="111">
            -53 23 -24 192 callsubr
            -146 -198 rlineto
            204 hlineto
            143 208 rlineto
            -131 200 return
          </CharString>
          <CharString index="112">
            rmoveto
            -27 -9 10 callgsubr
            -9 6 vhcurveto
            164 hlineto
            306 59 rmoveto
            -2026 -77 callsubr
            713 289 callgsubr
            -156 209 callgsubr
            75 callgsubr
            9 hvcurveto
            -32 8 23 -14 42 hhcurveto
            -91 callgsubr
          </CharString>
          <CharString index="113">
            8 -86 callgsubr
            return
          </CharString>
          <CharString index="114">
            -214 hlineto
            -103 callsubr
            return
          </CharString>
          <CharString index="115">
            vlineto
            -1 callgsubr
          </CharString>
          <CharString index="116">
            -7 -26 hvcurveto
            return
          </CharString>
          <CharString index="117">
            271 hlineto
            -63 callgsubr
            -127 330 callgsubr
            8 24 hvcurveto
            79 -200 return
          </CharString>
          <CharString index="118">
            -59 479 -78 -311 129 callgsubr
            284 246 callsubr
            -69 vlineto
            -26 311 callgsubr
            -159 53 -206 -190 206 78 316 146 callgsubr
            return
          </CharString>
          <CharString index="119">
            148 callsubr
            -47 hhcurveto
            return
          </CharString>
          <CharString index="120">
            hlineto
            -87 callgsubr
            return
          </CharString>
          <CharString index="121">
            -89 callgsubr
            303 -106 callgsubr
            return
          </CharString>
          <CharString index="122">
            11 rmoveto
            1 callsubr
            return
          </CharString>
          <CharString index="123">
            -26 -5 5 26 hvcurveto
            305 -31 callgsubr
            return
          </CharString>
          <CharString index="124">
            -86 callgsubr
            111 -67 callgsubr
            return
          </CharString>
          <CharString index="125">
            273 callgsubr
            29 208 callsubr
            395 vlineto
            23 11 8 25 vhcurveto
            98 -61 callsubr
            -395 184 167 callgsubr
          </CharString>
          <CharString index="126">
            vhcurveto
            -360 82 callgsubr
            203 87 callsubr
            return
          </CharString>
          <CharString index="127">
            -24 callsubr
            25 hvcurveto
            return
          </CharString>
          <CharString index="128">
            -106 callgsubr
            108 -67 callgsubr
            return
          </CharString>
          <CharString index="129">
            hlineto
            26 7 -7 -25 hvcurveto
            -78 199 107 callsubr
            return
          </CharString>
          <CharString index="130">
            132 callsubr
            105 return
          </CharString>
          <CharString index="131">
            rmoveto
            125 -48 callgsubr
            -413 44 callgsubr
            -464 -71 callgsubr
            413 190 callsubr
            -295 -59 102 -171 -16 callsubr
            -123 -65 callsubr
            442 -31 callgsubr
            123 -61 callsubr
            -114 vlineto
            endchar
          </CharString>
          <CharString index="132">
            169 -105 callsubr
            639 196 rmoveto
            return
          </CharString>
          <CharString index="133">
            -73 callsubr
            -377 -23 callsubr
            return
          </CharString>
          <CharString index="134" raw="1">
            fb5dfc07 06411d0b  
          </CharString>
          <CharString index="135">
            32 callgsubr
            178 65 callgsubr
            return
          </CharString>
          <CharString index="136">
            59 -378 -89 callgsubr
            return
          </CharString>
          <CharString index="137">
            6 -86 callgsubr
            return
          </CharString>
          <CharString index="138">
            424 -76 callsubr
            return
          </CharString>
          <CharString index="139">
            -69 -100 callsubr
            266 hlineto
            -63 callgsubr
            -61 30 callgsubr
            -144 56 -209 -193 209 78 301 -102 callgsubr
            107 callsubr
            return
          </CharString>
          <CharString index="140">
            214 23 callgsubr
            return
          </CharString>
          <CharString index="141">
            vlineto
            95 callgsubr
            return
          </CharString>
          <CharString index="142">
            rmoveto
            -32 callgsubr
            return
          </CharString>
          <CharString index="143">
            306 59 rmoveto
            return
          </CharString>
          <CharString index="144">
            -7 -26 vhcurveto
            return
          </CharString>
          <CharString index="145">
            37 callgsubr
            316 return
          </CharString>
          <CharString index="146">
            -25 22 callgsubr
            return
          </CharString>
          <CharString index="147">
            -258 229 249 callsubr
            return
          </CharString>
          <CharString index="148">
            11 -10 6 vhcurveto
            return
          </CharString>
          <CharString index="149">
            hlineto
            24 17 17 callgsubr
            12 202 callsubr
            return
          </CharString>
          <CharString index="150">
            90 -90 rlineto
            177 hlineto
            -180 156 rlineto
            -174 hlineto
            return
          </CharString>
          <CharString index="151">
            vlineto
            36 callgsubr
            return
          </CharString>
          <CharString index="152">
            151 callsubr
            563 106 vlineto
            endchar
          </CharString>
          <CharString index="153">
            rmoveto
            165 -61 callsubr
            -219 -16 callsubr
            -165 hlineto
            205 -282 rmoveto
            201 hlineto
            -141 223 rlineto
            45 190 callsubr
            -48 callgsubr
            -503 -622 193 223 72 hlineto
            endchar
          </CharString>
          <CharString index="154">
            95 callsubr
            -152 331 callsubr
            -19 -45 hvcurveto
            return
          </CharString>
          <CharString index="155">
            rmoveto
            -1394 -59 426 -249 hlineto
            -25 -6 -7 -26 vhcurveto
            -101 165 -201 -371 62 callsubr
          </CharString>
          <CharString index="156">
            -47 callsubr
            -52 -92 callgsubr
            -231 -156 hlineto
            -53 24 91 callsubr
          </CharString>
          <CharString index="157">
            -23 119 callsubr
            130 169 callgsubr
            return
          </CharString>
          <CharString index="158">
            vlineto
            23 7 8 22 86 callsubr
            return
          </CharString>
          <CharString index="159">
            -59 468 -100 -316 145 callsubr
            432 -102 callgsubr
            return
          </CharString>
          <CharString index="160">
            -85 callsubr
            166 -106 callgsubr
            return
          </CharString>
          <CharString index="161">
            -55 callgsubr
            endchar
          </CharString>
          <CharString index="162">
            281 -93 callgsubr
            199 563 107 vlineto
            endchar
          </CharString>
          <CharString index="163">
            -100 callsubr
            434 -102 callgsubr
            return
          </CharString>
          <CharString index="164">
            93 callsubr
            112 -7 callsubr
            -211 return
          </CharString>
          <CharString index="165">
            666 985 393 rmoveto
            170 callgsubr
            85 hlineto
            26 6 -8 -25 hvcurveto
            -104 vlineto
            -25 -8 -8 -22 vhcurveto
            -89 hlineto
            -23 -8 8 25 hvcurveto
            -286 274 rmoveto
            710 59 -1429 -59 520 -307 -35 hlineto
            -118 159 rlineto
            58 -43 -36 12 -89 hhcurveto
            -156 -60 28 hlineto
            54 32 -9 -46 35 hvcurveto
            97 -135 -231 -235 rlineto
            225 hlineto
            193 196 rlineto
            44 -196 199 196 return
          </CharString>
          <CharString index="166">
            rmoveto
            326 callgsubr
            -162 -54 vlineto
            -26 -5 -5 -26 vhcurveto
            -109 257 callsubr
            -163 -64 -71 callgsubr
            return
          </CharString>
          <CharString index="167">
            -350 62 callsubr
          </CharString>
          <CharString index="168">
            -74 callsubr
            231 173 callgsubr
            return
          </CharString>
          <CharString index="169">
            210 callgsubr
            467 -349 vlineto
            -27 -9 -8 -27 vhcurveto
            -123 hlineto
            -8 callgsubr
            261 hlineto
            16 11 3 8 7 hvcurveto
            -131 197 114 callgsubr
          </CharString>
          <CharString index="170">
            -89 callgsubr
            117 -68 callsubr
            138 59 -138 -46 callsubr
            119 -68 callsubr
            return
          </CharString>
          <CharString index="171">
            258 59 -258 215 299 59 -499 -622 return
          </CharString>
          <CharString index="172">
            172 callgsubr
            115 59 -781 149 callgsubr
            106 327 callsubr
            202 hlineto
            122 182 rlineto
            -101 244 callsubr
            258 59 hlineto
            endchar
          </CharString>
          <CharString index="173">
            69 callgsubr
            -61 return
          </CharString>
          <CharString index="174">
            226 callsubr
            hlineto
            endchar
          </CharString>
          <CharString index="175">
            120 callgsubr
            165 return
          </CharString>
          <CharString index="176">
            268 callgsubr
            164 34 callsubr
            185 -196 268 callsubr
            return
          </CharString>
          <CharString index="177">
            258 callsubr
            -3 hvcurveto
            -4 hlineto
            12 callsubr
            return
          </CharString>
          <CharString index="178">
            345 1088 3 callsubr
            -1108 -59 441 hlineto
            -63 callgsubr
            -147 vlineto
            -11 callsubr
            -147 82 -200 -356 hlineto
            -103 callsubr
            419 -102 callgsubr
            135 -199 -120 299 callsubr
            -106 -89 callgsubr
            200 304 vlineto
            53 23 24 53 hvcurveto
            37 119 vlineto
            26 7 -9 -24 hvcurveto
            return
          </CharString>
          <CharString index="179">
            vlineto
            -41 callsubr
            -54 27 callgsubr
            -145 -18 callsubr
          </CharString>
          <CharString index="180">
            -48 callgsubr
            endchar
          </CharString>
          <CharString index="181">
            vlineto
            -41 callsubr
            -81 -74 callsubr
            -67 callsubr
          </CharString>
          <CharString index="182">
            150 callgsubr
            340 485 rmoveto
            return
          </CharString>
          <CharString index="183">
            -26 -7 7 25 hvcurveto
            94 -68 callsubr
            122 59 -122 -46 callsubr
            126 157 callgsubr
            -92 166 107 26 callsubr
            -138 vlineto
            -46 19 336 callgsubr
            -1 -19 -18 -45 vvcurveto
            -103 -74 callsubr
            return
          </CharString>
          <CharString index="184">
            rmoveto
            -24 -8 -8 -26 vhcurveto
            -156 hlineto
            -26 -7 8 24 hvcurveto
            303 60 callgsubr
            122 callgsubr
          </CharString>
          <CharString index="185">
            64 callgsubr
            304 vlineto
            9 callgsubr
            return
          </CharString>
          <CharString index="186">
            11 7 6 13 24 vvcurveto
            142 78 callgsubr
            return
          </CharString>
          <CharString index="187">
            -82 callsubr
            -246 218 callsubr
            520 45 callsubr
          </CharString>
          <CharString index="188">
            hlineto
            26 7 -7 -25 hvcurveto
            -126 -63 callsubr
            return
          </CharString>
          <CharString index="189">
            115 callsubr
            -27 vhcurveto
            -353 82 callgsubr
            196 164 callgsubr
            return
          </CharString>
          <CharString index="190">
            53 -24 23 -53 vhcurveto
            return
          </CharString>
          <CharString index="191">
            316 callgsubr
            146 -227 vlineto
            -390 -296 rlineto
            235 hlineto
            170 229 callsubr
            182 644 106 vlineto
            endchar
          </CharString>
          <CharString index="192">
            97 callsubr
            225 vlineto
            24 256 callsubr
            return
          </CharString>
          <CharString index="193">
            1 vhcurveto
            101 59 -414 -59 99 259 callgsubr
            return
          </CharString>
          <CharString index="194">
            113 callsubr
            142 vlineto
            19 -5 11 return
          </CharString>
          <CharString index="195">
            -390 115 callsubr
            -28 vhcurveto
            -360 82 callgsubr
            203 -87 callsubr
            return
          </CharString>
          <CharString index="196">
            -70 callsubr
            -421 hlineto
            -98 callsubr
            return
          </CharString>
          <CharString index="197">
            rmoveto
            235 callgsubr
            434 hlineto
            53 23 23 53 hvcurveto
            91 vlineto
            endchar
          </CharString>
          <CharString index="198">
            -93 callsubr
            504 45 callsubr
          </CharString>
          <CharString index="199">
            -103 callsubr
            281 -93 callgsubr
            199 360 -45 callgsubr
            return
          </CharString>
          <CharString index="200">
            -74 callsubr
            318 59 -161 14 callsubr
            return
          </CharString>
          <CharString index="201">
            -51 callsubr
            255 35 callgsubr
            return
          </CharString>
          <CharString index="202">
            -6 -5 -11 -19 vvcurveto
            return
          </CharString>
          <CharString index="203">
            271 137 rmoveto
            -56 callgsubr
            -444 426 rmoveto
            197 callgsubr
            59 -758 vlineto
            return
          </CharString>
          <CharString index="204">
            -394 -42 callsubr
            return
          </CharString>
          <CharString index="205">
            304 113 callsubr
            return
          </CharString>
          <CharString index="206">
            74 callgsubr
            -335 return
          </CharString>
          <CharString index="207">
            hlineto
            19 -54 21 -60 17 -56 24 -47 rlinecurve
            -7 hlineto
            -30 53 -33 49 -53 62 -44 53 rcurveline
            -182 hlineto
            137 -129 52 -48 33 -27 18 -13 rlinecurve
            return
          </CharString>
          <CharString index="208">
            -42 callsubr
            111 vlineto
            25 7 return
          </CharString>
          <CharString index="209">
            -19 141 callsubr
            return
          </CharString>
          <CharString index="210">
            -10 214 callsubr
            225 387 rmoveto
            92 59 -752 52 callsubr
            return
          </CharString>
          <CharString index="211">
            hlineto
            -24 -6 -88 callsubr
            return
          </CharString>
          <CharString index="212">
            79 callgsubr
            -152 -100 callsubr
            213 hlineto
            -104 297 callsubr
            85 155 80 -155 rlineto
            190 hlineto
            -99 162 rlineto
            189 -102 callgsubr
            320 vlineto
            return
          </CharString>
          <CharString index="213">
            hlineto
            42 callgsubr
          </CharString>
          <CharString index="214">
            93 -73 callsubr
            return
          </CharString>
          <CharString index="215">
            195 callsubr
            -3 hvcurveto
            return
          </CharString>
          <CharString index="216">
            -81 callgsubr
            -99 200 return
          </CharString>
          <CharString index="217">
            -57 callsubr
            123 287 28 callsubr
            return
          </CharString>
          <CharString index="218">
            -164 vlineto
            -12 callsubr
            -119 vlineto
            -53 23 -24 53 vhcurveto
            315 -91 callsubr
            -61 199 445 -199 -101 -192 vlineto
            213 callgsubr
            154 -106 callgsubr
            endchar
          </CharString>
          <CharString index="219">
            hlineto
            198 callsubr
          </CharString>
          <CharString index="220">
            vlineto
            -97 callgsubr
            return
          </CharString>
          <CharString index="221">
            rmoveto
            50 -24 24 -50 vhcurveto
            -224 hlineto
            -50 -24 -24 -50 hvcurveto
            -34 vlineto
            -51 24 -24 50 vhcurveto
            224 hlineto
            50 24 24 51 hvcurveto
            -117 10 rmoveto
            -25 -4 -5 -26 vhcurveto
            -78 hlineto
            -25 -5 5 25 hvcurveto
            13 vlineto
            25 5 5 25 vhcurveto
            78 hlineto
            26 4 -5 -25 hvcurveto
            return
          </CharString>
          <CharString index="222">
            rmoveto
            -27 -9 -9 return
          </CharString>
          <CharString index="223">
            44 callgsubr
            -180 -71 callgsubr
            return
          </CharString>
          <CharString index="224">
            -11 732 3 callsubr
            -752 -59 752 hlineto
            -163 -446 303 callgsubr
            233 320 59 -511 -277 vlineto
            94 callgsubr
            return
          </CharString>
          <CharString index="225">
            rmoveto
            260 callgsubr
            -156 hlineto
            -26 -7 8 24 hvcurveto
            303 309 callsubr
            return
          </CharString>
          <CharString index="226">
            53 vhcurveto
            189 59 -56 -89 callgsubr
            return
          </CharString>
          <CharString index="227" raw="1">
            711efb01 06710b  
          </CharString>
          <CharString index="228">
            78 callsubr
            534 hmoveto
            -306 -622 154 callsubr
          </CharString>
          <CharString index="229">
            -42 callgsubr
            -532 -316 vlineto
            -69 callgsubr
            return
          </CharString>
          <CharString index="230">
            70 callgsubr
            -230 426 rmoveto
            return
          </CharString>
          <CharString index="231">
            330 hlineto
            -346 -504 rlineto
            -59 555 59 -336 vlineto
            346 504 rlineto
            return
          </CharString>
          <CharString index="232">
            rmoveto
            174 hlineto
            180 155 rlineto
            -177 hlineto
            -90 -90 -89 90 rlineto
            -178 hlineto
            return
          </CharString>
          <CharString index="233">
            vlineto
            57 -6 53 0 vhcurveto
            return
          </CharString>
          <CharString index="234">
            rmoveto
            215 callgsubr
            19 -27 46 vhcurveto
            97 hlineto
            -158 -202 rlineto
            200 hlineto
            170 224 rlineto
            42 37 hlineto
            endchar
          </CharString>
          <CharString index="235">
            -29 callsubr
            119 -61 callsubr
            return
          </CharString>
          <CharString index="236">
            rmoveto
            -62 callsubr
            -150 return
          </CharString>
          <CharString index="237">
            -65 callsubr
            129 return
          </CharString>
          <CharString index="238">
            227 callsubr
            -6 -63 -47 vvcurveto
            -19 181 644 106 vlineto
            endchar
          </CharString>
          <CharString index="239">
            -70 callsubr
            -336 -59 179 -67 callgsubr
            -225 vlineto
            -24 -7 -8 335 callsubr
            8 24 176 callgsubr
            return
          </CharString>
          <CharString index="240">
            255 callgsubr
            743 -102 callgsubr
            333 vlineto
            return
          </CharString>
          <CharString index="241">
            vlineto
            170 callgsubr
            return
          </CharString>
          <CharString index="242">
            171 vlineto
            19 return
          </CharString>
          <CharString index="243">
            59 -161 14 callsubr
            113 -67 callgsubr
            -211 200 -21 callsubr
            146 -426 154 callsubr
          </CharString>
          <CharString index="244">
            -379 vlineto
            -72 callsubr
            -112 20 callsubr
            212 219 callsubr
            return
          </CharString>
          <CharString index="245">
            202 callsubr
            -17 callsubr
          </CharString>
          <CharString index="246">
            405 -210 rmoveto
            195 128 -195 hlineto
            return
          </CharString>
          <CharString index="247">
            187 -48 callgsubr
            return
          </CharString>
          <CharString index="248">
            43 165 callgsubr
            return
          </CharString>
          <CharString index="249">
            -333 162 callsubr
            7 8 26 vhcurveto
            return
          </CharString>
          <CharString index="250">
            -53 23 -24 53 vhcurveto
            273 -91 callsubr
            -132 200 290 -200 -75 vlineto
            -26 311 callgsubr
            -120 152 callgsubr
            179 -106 callgsubr
            endchar
          </CharString>
          <CharString index="251">
            622 156 callgsubr
            return
          </CharString>
          <CharString index="252">
            hlineto
            -98 callsubr
            -194 -100 callsubr
            return
          </CharString>
          <CharString index="253">
            -102 callgsubr
            333 -73 callsubr
            return
          </CharString>
          <CharString index="254">
            -43 callsubr
            185 -48 callgsubr
            return
          </CharString>
          <CharString index="255">
            42 -2 -19 18 return
          </CharString>
          <CharString index="256">
            rmoveto
            -395 vlineto
            -23 -12 -8 -25 87 callgsubr
            -406 -71 callgsubr
            214 hlineto
            32 17 10 20 8 hvcurveto
            -30 184 485 vlineto
            endchar
          </CharString>
          <CharString index="257">
            rmoveto
            205 callsubr
            262 -235 rlineto
            -3 -5 -8 -2 -11 hhcurveto
            return
          </CharString>
          <CharString index="258">
            68 callgsubr
            200 return
          </CharString>
          <CharString index="259">
            -59 449 hlineto
            -63 callgsubr
            -152 vlineto
            -11 callsubr
            -155 131 343 callgsubr
            367 59 -211 -89 callgsubr
            195 return
          </CharString>
          <CharString index="260">
            vlineto
            -84 callsubr
          </CharString>
          <CharString index="261">
            200 127 callgsubr
          </CharString>
          <CharString index="262">
            -148 rmoveto
            -26 209 callsubr
            -94 -58 217 hlineto
            53 29 26 56 hvcurveto
            110 -173 vlineto
            return
          </CharString>
          <CharString index="263">
            rmoveto
            -577 -59 191 -563 193 563 193 hlineto
            endchar
          </CharString>
          <CharString index="264">
            -198 209 callgsubr
            return
          </CharString>
          <CharString index="265">
            vlineto
            -78 callsubr
            return
          </CharString>
          <CharString index="266">
            59 -449 -59 252 vlineto
            -268 -367 rlineto
            -59 474 59 return
          </CharString>
          <CharString index="267">
            hlineto
            26 7 -9 -24 hvcurveto
            return
          </CharString>
          <CharString index="268">
            563 rmoveto
            263 -187 hlineto
            -84 8 -79 0 vhcurveto
            -230 -76 rmoveto
            -85 callsubr
            175 vlineto
            72 -11 71 0 vhcurveto
            261 -338 rlineto
            -9 -4 -10 -3 -16 hhcurveto
            return
          </CharString>
          <CharString index="269">
            57 callsubr
            200 211 vlineto
            24 return
          </CharString>
          <CharString index="270">
            159 callgsubr
            140 203 vlineto
            53 return
          </CharString>
          <CharString index="271">
            10 1 2 8 hvcurveto
            return
          </CharString>
          <CharString index="272">
            vlineto
            -251 229 rlineto
            200 59 -337 -65 callgsubr
            358 53 callgsubr
            return
          </CharString>
          <CharString index="273">
            vlineto
            -259 230 249 callsubr
            25 16 17 callgsubr
            13 18 -5 24 hhcurveto
            return
          </CharString>
          <CharString index="274">
            -44 -19 -20 -44 hvcurveto
            -53 vlineto
            -36 15 -15 34 -1 vhcurveto
            -4 vlineto
            -34 -1 -15 -15 -36 vvcurveto
            -53 vlineto
            -45 19 -19 44 vhcurveto
            512 59 -386 hlineto
            -22 -6 6 21 hvcurveto
            return
          </CharString>
          <CharString index="275">
            273 callsubr
            119 return
          </CharString>
          <CharString index="276">
            173 115 callsubr
            return
          </CharString>
          <CharString index="277" raw="1">
            fb6a0656 0b  
          </CharString>
          <CharString index="278">
            -192 129 callsubr
            return
          </CharString>
          <CharString index="279">
            426 248 callgsubr
            return
          </CharString>
          <CharString index="280">
            -126 -100 callsubr
            return
          </CharString>
          <CharString index="281">
            33 12 -10 callgsubr
            48 64 -106 hlineto
            -58 -27 -29 -57 hvcurveto
            -20 vlineto
            -33 6 -29 4 -16 vhcurveto
            -9 16 -17 35 -28 37 -66 84 rcurveline
            -180 hlineto
            93 -110 return
          </CharString>
          <CharString index="282">
            -59 callgsubr
            -81 -74 callsubr
            271 hlineto
            -63 callgsubr
            return
          </CharString>
          <CharString index="283">
            vlineto
            -87 callgsubr
            return
          </CharString>
          <CharString index="284">
            278 callsubr
            -160 -65 callsubr
            44 vlineto
            26 5 4 26 vhcurveto
            137 90 return
          </CharString>
          <CharString index="285">
            rmoveto
            -25 340 callgsubr
            25 hvcurveto
            return
          </CharString>
          <CharString index="286">
            vlineto
            -24 -6 -88 callsubr
            return
          </CharString>
          <CharString index="287">
            6 0 6 -1 5 vhcurveto
            return
          </CharString>
          <CharString index="288">
            hlineto
            25 16 5 10 11 hvcurveto
            -10 13 138 callsubr
          </CharString>
          <CharString index="289">
            196 634 -196 hlineto
            236 -185 rmoveto
            196 185 -196 hlineto
            return
          </CharString>
          <CharString index="290">
            hlineto
            -50 callgsubr
            -150 87 1 59 return
          </CharString>
          <CharString index="291">
            9 callsubr
            -129 vlineto
            -25 return
          </CharString>
          <CharString index="292">
            vlineto
            192 callgsubr
            return
          </CharString>
          <CharString index="293">
            -62 callgsubr
            193 return
          </CharString>
          <CharString index="294">
            -240 -100 callsubr
            189 hlineto
            -155 -171 rlineto
            205 hlineto
            152 183 rlineto
            -105 -98 callgsubr
          </CharString>
          <CharString index="295">
            hlineto
            -151 -313 -159 313 rlineto
            -190 hlineto
            return
          </CharString>
          <CharString index="296">
            -382 75 3 callsubr
            -622 200 622 vlineto
            return
          </CharString>
          <CharString index="297">
            -43 callsubr
            241 return
          </CharString>
          <CharString index="298">
            rmoveto
            -197 -120 197 hlineto
            return
          </CharString>
          <CharString index="299">
            283 callsubr
            hlineto
            return
          </CharString>
          <CharString index="300">
            220 callgsubr
            -348 -89 callgsubr
            82 190 32 callgsubr
            82 35 callgsubr
            return
          </CharString>
          <CharString index="301">
            -72 callsubr
            -133 -107 callgsubr
            117 59 -273 hlineto
            -98 callsubr
            return
          </CharString>
          <CharString index="302">
            -44 -17 -19 -41 return
          </CharString>
          <CharString index="303">
            91 118 callsubr
            return
          </CharString>
          <CharString index="304">
            hlineto
            25 16 5 10 11 hvcurveto
            -10 13 18 -5 24 271 callsubr
          </CharString>
          <CharString index="305">
            4 callsubr
            563 106 vlineto
            endchar
          </CharString>
          <CharString index="306">
            rmoveto
            563 -193 -622 484 59 vlineto
            endchar
          </CharString>
          <CharString index="307">
            -120 197 120 vlineto
            return
          </CharString>
          <CharString index="308">
            90 35 callsubr
            return
          </CharString>
          <CharString index="309">
            18 -5 24 hhcurveto
            return
          </CharString>
          <CharString index="310">
            -59 94 -409 vlineto
            92 callsubr
            return
          </CharString>
          <CharString index="311">
            216 callsubr
            endchar
          </CharString>
          <CharString index="312">
            -85 callsubr
            98 126 callsubr
            return
          </CharString>
          <CharString index="313">
            269 callgsubr
            87 vlineto
            24 8 9 26 vhcurveto
            return
          </CharString>
          <CharString index="314">
            -26 -6 7 26 hvcurveto
            37 vlineto
            26 6 -10 callgsubr
            return
          </CharString>
          <CharString index="315">
            -184 -485 184 return
          </CharString>
          <CharString index="316">
            -6 37 callsubr
            return
          </CharString>
          <CharString index="317">
            -74 callgsubr
            536 29 callsubr
            return
          </CharString>
          <CharString index="318">
            137 rmoveto
            53 callsubr
            return
          </CharString>
          <CharString index="319">
            282 callgsubr
            -263 239 rlineto
            207 59 return
          </CharString>
          <CharString index="320">
            -98 callsubr
            -54 27 callgsubr
            -135 -100 callsubr
            return
          </CharString>
          <CharString index="321">
            263 176 69 callsubr
            return
          </CharString>
          <CharString index="322">
            324 callsubr
            -107 vlineto
            -25 8 -20 15 -15 vhcurveto
            -15 -14 -8 -20 -25 vvcurveto
            -108 282 callsubr
            return
          </CharString>
          <CharString index="323">
            rmoveto
            -443 vlineto
            -248 443 rlineto
            -168 -622 178 442 hlineto
            251 -442 rlineto
            166 622 hlineto
            return
          </CharString>
          <CharString index="324">
            -68 callgsubr
            hlineto
            endchar
          </CharString>
          <CharString index="325">
            -214 hlineto
            -74 callgsubr
            return
          </CharString>
          <CharString index="326">
            -106 callgsubr
            96 59 return
          </CharString>
          <CharString index="327">
            137 rmoveto
            -85 callsubr
            return
          </CharString>
          <CharString index="328">
            -141 -74 callsubr
            return
          </CharString>
          <CharString index="329">
            148 rmoveto
            -140 vlineto
            -72 callsubr
            -158 152 callgsubr
            109 34 callsubr
            return
          </CharString>
          <CharString index="330">
            169 rmoveto
            -24 -6 -88 callsubr
            -127 -107 callgsubr
            159 hlineto
            return
          </CharString>
          <CharString index="331">
            rmoveto
            -61 -34 -24 -36 -14 hvcurveto
            58 208 callsubr
            342 vlineto
            46 23 30 50 vhcurveto
            100 69 hlineto
            endchar
          </CharString>
          <CharString index="332">
            rmoveto
            208 callsubr
            342 hlineto
            46 23 30 50 vhcurveto
            100 69 -64 hlineto
            -61 -34 -24 -36 -14 hvcurveto
            endchar
          </CharString>
          <CharString index="333">
            -30 callgsubr
            -61 -71 callgsubr
            244 57 return
          </CharString>
          <CharString index="334">
            229 callgsubr
            169 145 rlineto
            0 return
          </CharString>
          <CharString index="335">
            vlineto
            245 callsubr
            return
          </CharString>
          <CharString index="336">
            145 rlineto
            0 -7 -63 -47 vvcurveto
            -19 return
          </CharString>
          <CharString index="337">
            hlineto
            13 11 1 3 9 hvcurveto
            -32 8 return
          </CharString>
          <CharString index="338">
            -47 238 callsubr
            return
          </CharString>
          <CharString index="339">
            137 150 callgsubr
            return
          </CharString>
          <CharString index="340">
            rmoveto
            -549 -59 124 callsubr
            endchar
          </CharString>
          <CharString index="341">
            vhcurveto
            -5 vlineto
            -43 return
          </CharString>
          <CharString index="342">
            rmoveto
            242 callgsubr
            return
          </CharString>
          <CharString index="343">
            324 callgsubr
            -127 hlineto
            292 callgsubr
            hlineto
            return
          </CharString>
          <CharString index="344">
            70 callsubr
            -332 hlineto
            -98 callsubr
            return
          </CharString>
          <CharString index="345">
            rmoveto
            -188 188 callsubr
            254 -417 rlineto
            -205 193 return
          </CharString>
          <CharString index="346">
            -74 callgsubr
            520 hlineto
            16 11 3 8 7 hvcurveto
            return
          </CharString>
          <CharString index="347">
            hlineto
            -98 callsubr
            -196 -100 callsubr
            return
          </CharString>
          <CharString index="348">
            241 callgsubr
            -123 190 callgsubr
            return
          </CharString>
          <CharString index="349">
            rmoveto
            -85 callsubr
            98 vlineto
            56 317 callsubr
            262 -237 rlineto
            -2 -5 -6 -1 -9 hhcurveto
            return
          </CharString>
          <CharString index="350">
            rmoveto
            292 callgsubr
            -218 268 callsubr
            return
          </CharString>
          <CharString index="351">
            200 -70 callgsubr
            return
          </CharString>
          <CharString index="352">
            -72 callsubr
            -119 hlineto
            -26 -7 return
          </CharString>
          <CharString index="353">
            hlineto
            26 8 9 callsubr
            return
          </CharString>
          <CharString index="354">
            hlineto
            -26 -8 7 26 hvcurveto
            return
          </CharString>
          <CharString index="355">
            vlineto
            -27 -9 -8 -27 vhcurveto
            return
          </CharString>
          <CharString index="356">
            -12 callgsubr
            365 hlineto
            return
          </CharString>
          <CharString index="357">
            hhcurveto
            -23 callgsubr
          </CharString>
          <CharString index="358">
            rmoveto
            -193 hlineto
            -180 -240 179 -245 rlineto
            194 hlineto
            -187 245 rlineto
            endchar
          </CharString>
          <CharString index="359">
            83 callsubr
            -414 hlineto
            -98 callsubr
            return
          </CharString>
          <CharString index="360">
            rmoveto
            -85 callsubr
            99 vlineto
            return
          </CharString>
          <CharString index="361">
            -106 callgsubr
            160 return
          </CharString>
          <CharString index="362">
            vlineto
            180 callsubr
            return
          </CharString>
          <CharString index="363">
            7 141 callgsubr
            return
          </CharString>
          <CharString index="364">
            -65 callsubr
            54 return
          </CharString>
          <CharString index="365">
            -213 hlineto
            195 callsubr
            return
          </CharString>
          <CharString index="366">
            -426 -95 callgsubr
            return
          </CharString>
          <CharString index="367">
            44 callgsubr
            -105 -72 -59 72 -426 184 426 150 -426 184 return
          </CharString>
          <CharString index="368">
            -426 271 callgsubr
          </CharString>
          <CharString index="369">
            -394 133 callgsubr
            return
          </CharString>
          <CharString index="370">
            21 6 6 22 vhcurveto
            29 59 -29 hlineto
            -22 -6 7 20 hvcurveto
            28 vlineto
            20 6 7 22 vhcurveto
            return
          </CharString>
          <CharString index="371">
            -62 vlineto
            -28 -9 -8 -31 vhcurveto
            -87 -43 98 -117 hhcurveto
            -146 hlineto
            -54 -24 -27 -51 hvcurveto
            return
          </CharString>
          <CharString index="372">
            vlineto
            48 -15 30 -57 vhcurveto
            -276 63 hlineto
            19 -4 41 callsubr
            448 hlineto
            endchar
          </CharString>
          <CharString index="373">
            164 callsubr
            -47 -100 callsubr
            return
          </CharString>
          <CharString index="374">
            -78 -128 vlineto
            -98 callsubr
            return
          </CharString>
          <CharString index="375">
            hlineto
            39 callsubr
            return
          </CharString>
          <CharString index="376">
            -303 vlineto
            -53 -24 return
          </CharString>
          <CharString index="377">
            -73 callsubr
            -129 78 hlineto
            endchar
          </CharString>
          <CharString index="378">
            hhcurveto
            291 -83 callgsubr
          </CharString>
          <CharString index="379" raw="1">
            50eefb68 06f7da0a 0b 
          </CharString>
          <CharString index="380">
            rmoveto
            -14 -11 -3 -6 -7 hvcurveto
            return
          </CharString>
          <CharString index="381">
            hlineto
            180 callgsubr
            return
          </CharString>
          <CharString index="382">
            vlineto
            36 callsubr
            return
          </CharString>
          <CharString index="383">
            -426 198 return
          </CharString>
          <CharString index="384">
            -59 94 -370 hlineto
            -103 callsubr
            415 -102 callgsubr
            return
          </CharString>
          <CharString index="385">
            -33 284 callsubr
            return
          </CharString>
          <CharString index="386">
            345 -93 callgsubr
            197 114 callgsubr
          </CharString>
          <CharString index="387">
            277 hlineto
            -63 callgsubr
            return
          </CharString>
          <CharString index="388">
            rmoveto
            -191 -123 191 hlineto
            return
          </CharString>
          <CharString index="389">
            vlineto
            -53 22 -22 53 vhcurveto
            return
          </CharString>
          <CharString index="390">
            53 vhcurveto
            112 return
          </CharString>
          <CharString index="391">
            -38 hlineto
            226 callsubr
            return
          </CharString>
          <CharString index="392">
            19 102 callsubr
            -19 -19 return
          </CharString>
          <CharString index="393">
            -18 274 callgsubr
            18 -18 return
          </CharString>
          <CharString index="394">
            -90 9 -42 0 vhcurveto
            return
          </CharString>
          <CharString index="395">
            230 64 callsubr
            return
          </CharString>
          <CharString index="396">
            20 callsubr
            208 -106 callgsubr
            116 return
          </CharString>
          <CharString index="397">
            251 3 callsubr
            -65 hlineto
            -132 -206 rlineto
            -70 197 vlineto
            return
          </CharString>
          <CharString index="398">
            hlineto
            23 7 -8 -20 12 hvcurveto
            106 -183 rlineto
            187 hlineto
            endchar
          </CharString>
          <CharString index="399">
            rmoveto
            -551 -411 rlineto
            235 hlineto
            return
          </CharString>
          <CharString index="400">
            254 callsubr
            hlineto
            return
          </CharString>
          <CharString index="401">
            281 callgsubr
            -70 return
          </CharString>
          <CharString index="402">
            197 137 -197 hlineto
            return
          </CharString>
          <CharString index="403">
            vlineto
            23 7 8 22 1 vhcurveto
            return
          </CharString>
          <CharString index="404">
            -162 304 callgsubr
            return
          </CharString>
          <CharString index="405">
            rmoveto
            137 118 59 return
          </CharString>
          <CharString index="406">
            vlineto
            260 callgsubr
            return
          </CharString>
          <CharString index="407">
            vlineto
            -391 -296 rlineto
            return
          </CharString>
          <CharString index="408">
            rmoveto
            -98 callsubr
            return
          </CharString>
          <CharString index="409">
            hlineto
            132 206 rlineto
            return
          </CharString>
          <CharString index="410" raw="1">
            711e2c06 710b  
          </CharString>
          <CharString index="411">
            -333 -316 return
          </CharString>
          <CharString index="412">
            -73 callsubr
            -271 -46 callsubr
            return
          </CharString>
          <CharString index="413">
            hlineto
            -25 -11 9 22 hvcurveto
            304 vlineto
            23 11 8 25 vhcurveto
            return
          </CharString>
          <CharString index="414">
            -43 callsubr
            327 -48 callgsubr
            return
          </CharString>
          <CharString index="415">
            53 hvcurveto
            138 245 callgsubr
            return
          </CharString>
          <CharString index="416">
            -106 callgsubr
            156 -7 callsubr
            return
          </CharString>
          <CharString index="417">
            rmoveto
            66 hlineto
            132 205 rlineto
            71 -198 vlineto
            endchar
          </CharString>
          <CharString index="418">
            hlineto
            206 callsubr
            return
          </CharString>
          <CharString index="419">
            -45 19 -19 323 callsubr
            -19 -19 -45 hvcurveto
            return
          </CharString>
          <CharString index="420">
            -73 callsubr
            -241 -59 101 hlineto
            26 7 return
          </CharString>
          <CharString index="421">
            65 302 callsubr
            84 -197 vlineto
            endchar
          </CharString>
          <CharString index="422">
            hlineto
            -92 297 callsubr
            return
          </CharString>
          <CharString index="423">
            -51 callsubr
            168 return
          </CharString>
          <CharString index="424">
            -6 54 0 vhcurveto
            return
          </CharString>
          <CharString index="425">
            vlineto
            -45 19 -19 44 -1 vhcurveto
            -4 vlineto
            -44 -1 -19 return
          </CharString>
          <CharString index="426">
            -45 callsubr
            103 hlineto
            -63 callgsubr
            return
          </CharString>
          <CharString index="427">
            123 866 3 callsubr
            -886 -59 580 return
          </CharString>
          <CharString index="428">
            -395 256 hmoveto
            484 -184 -484 vlineto
            return
          </CharString>
          <CharString index="429">
            hlineto
            -36 -20 -22 -35 hvcurveto
            -124 31 vlineto
            endchar
          </CharString>
          <CharString index="430">
            43 -1 234 callsubr
            return
          </CharString>
          <CharString index="431">
            hlineto
            -53 -22 -22 -53 hvcurveto
            return
          </CharString>
          <CharString index="432">
            hlineto
            337 callsubr
            return
          </CharString>
          <CharString index="433" raw="1">
            5e9ef74e 1d0b  
          </CharString>
          <CharString index="434">
            hlineto
            -127 -172 rlineto
            return
          </CharString>
          <CharString index="435">
            -10 -6 -4 -11 -19 vvcurveto
            return
          </CharString>
          <CharString index="436">
            421 hlineto
            53 return
          </CharString>
          <CharString index="437">
            -88 callsubr
            -119 -89 callgsubr
            return
          </CharString>
          <CharString index="438">
            vlineto
            -45 20 -19 201 callgsubr
            return
          </CharString>
          <CharString index="439">
            -21 22 -40 3 vhcurveto
            40 2 21 23 44 vvcurveto
            return
          </CharString>
          <CharString index="440">
            669 -183 -669 vlineto
            return
          </CharString>
          <CharString index="441">
            201 135 -201 hlineto
            return
          </CharString>
          <CharString index="442">
            -26 vhcurveto
            -121 hlineto
            -26 -6 return
          </CharString>
          <CharString index="443" raw="1">
            481d220b   
          </CharString>
          <CharString index="444">
            -26 -6 9 24 hvcurveto
            return
          </CharString>
          <CharString index="445">
            hvcurveto
            140 vlineto
            return
          </CharString>
          <CharString index="446">
            129 callsubr
            146 return
          </CharString>
          <CharString index="447">
            -51 callsubr
            272 139 return
          </CharString>
          <CharString index="448">
            25 26 -18 19 -26 -25 -19 -19 -26 vhcurveto
            return
          </CharString>
          <CharString index="449">
            vlineto
            -53 23 -24 53 vhcurveto
            290 hlineto
            26 return
          </CharString>
          <CharString index="450">
            149 hmoveto
            194 622 -194 hlineto
            return
          </CharString>
          <CharString index="451">
            vlineto
            -63 callgsubr
            659 92 rmoveto
            return
          </CharString>
          <CharString index="452">
            rmoveto
            191 111 -191 hlineto
            endchar
          </CharString>
        <CharString name=".notdef">
          31 167 hmoveto
          420 701 -420 hlineto
          71 -67 rmoveto
          278 -567 -278 hlineto
          endchar
        </CharString>
        <CharString name="A">
          15 260 182 rmoveto
          -31 callsubr
        </CharString>
        <CharString name="AE">
          349 329 190 rmoveto
          200 328 rlineto
          -328 vlineto
          194 -131 rmoveto
          230 258 59 -258 215 295 59 -612 vlineto
          -393 -622 rlineto
          201 hlineto
          80 131 rlineto
          235 -131 502 59 hlineto
          endchar
        </CharString>
        <CharString name="Aacute">
          12 623 820 29 callgsubr
          -192 -487 rmoveto
          -31 callsubr
        </CharString>
        <CharString name="Abreve">
          12 536 669 59 callsubr
          61 -487 rmoveto
          -31 callsubr
        </CharString>
        <CharString name="Acircumflex">
          12 367 758 156 callgsubr
          -19 -486 rmoveto
          -31 callsubr
        </CharString>
        <CharString name="Adieresis">
          12 615 789 175 callgsubr
          -59 -487 rmoveto
          -31 callsubr
        </CharString>
        <CharString name="Agrave">
          12 437 669 rmoveto
          -138 151 rlineto
          -184 hlineto
          172 -151 rlineto
          -28 -487 rmoveto
          -31 callsubr
        </CharString>
        <CharString name="Amacron">
          12 609 727 257 callgsubr
          -350 -487 rmoveto
          -31 callsubr
        </CharString>
        <CharString name="Aogonek">
          12 259 182 rmoveto
          108 326 107 -326 rlineto
          105 -377 212 callgsubr
          7 hlineto
          -237 622 rlineto
          -237 hlineto
          -236 -622 rlineto
          186 hlineto
          41 123 rlineto
          253 hlineto
          40 -123 rlineto
          -33 -38 vlineto
          67 callsubr
        </CharString>
        <CharString name="Aring">
          12 299 767 49 callgsubr
          3 -487 rmoveto
          -31 callsubr
        </CharString>
        <CharString name="Atilde">
          12 259 725 rmoveto
          13 5 8 14 vhcurveto
          -9 callsubr
          vlineto
          -487 vmoveto
          -31 callsubr
        </CharString>
        <CharString name="B">
          -2 75 3 callsubr
          -622 499 vlineto
          53 26 26 53 hvcurveto
          165 vlineto
          43 332 callsubr
          162 -48 callgsubr
          -106 -538 rmoveto
          -19 -10 -6 -24 vhcurveto
          -166 223 169 -61 callsubr
          121 vmoveto
          -32 callgsubr
          -169 222 169 323 callgsubr
        </CharString>
        <CharString name="C">
          -35 638 398 -10 callsubr
        </CharString>
        <CharString name="CR">
          -449 endchar
        </CharString>
        <CharString name="Cacute">
          -45 593 820 29 callgsubr
          213 -271 -10 callsubr
        </CharString>
        <CharString name="Ccaron">
          -45 435 669 -13 callgsubr
          373 -271 -10 callsubr
        </CharString>
        <CharString name="Ccedilla">
          -45 257 155 callsubr
          377 445 -10 callsubr
        </CharString>
        <CharString name="D">
          0 462 201 callsubr
          -163 504 163 342 callgsubr
          -622 501 vlineto
          139 callgsubr
        </CharString>
        <CharString name="Dcaron">
          4 443 669 -13 callgsubr
          199 -579 35 callsubr
          -163 504 163 342 callgsubr
          -622 501 vlineto
          139 callgsubr
        </CharString>
        <CharString name="Dcroat">
          33 490 201 callsubr
          -162 225 120 62 -120 217 162 -61 callsubr
          -386 90 rmoveto
          -276 -68 -62 68 -284 500 vlineto
          139 callgsubr
        </CharString>
        <CharString name="E">
          -102 275 59 rmoveto
          288 callsubr
          512 59 vlineto
          endchar
        </CharString>
        <CharString name="Eacute">
          -107 575 819 29 callgsubr
          -131 -609 rmoveto
          288 callsubr
          512 59 vlineto
          endchar
        </CharString>
        <CharString name="Ecaron">
          -107 421 669 -13 callgsubr
          25 -380 rmoveto
          64 callsubr
          512 59 -312 hlineto
          endchar
        </CharString>
        <CharString name="Ecircumflex">
          -107 327 759 156 callgsubr
          34 -380 rmoveto
          64 callsubr
          512 59 -312 hlineto
          endchar
        </CharString>
        <CharString name="Edieresis">
          -61 570 789 175 callgsubr
          -1 -610 rmoveto
          288 callsubr
          513 59 vlineto
          endchar
        </CharString>
        <CharString name="Edotaccent">
          -107 433 792 281 callsubr
          -161 -610 rmoveto
          288 callsubr
          512 59 vlineto
          endchar
        </CharString>
        <CharString name="Egrave">
          -107 407 668 147 callgsubr
          16 -609 rmoveto
          288 callsubr
          512 59 vlineto
          endchar
        </CharString>
        <CharString name="Emacron">
          -107 559 727 257 callgsubr
          -287 -610 rmoveto
          288 callsubr
          512 59 vlineto
          endchar
        </CharString>
        <CharString name="Eogonek">
          -107 448 -195 86 callgsubr
          104 -1 45 -312 288 callsubr
          330 278 callsubr
          hlineto
          endchar
        </CharString>
        <CharString name="Eth">
          9 475 201 callsubr
          -162 225 120 62 -120 217 162 342 callgsubr
          -276 -68 -62 68 -284 501 vlineto
          139 callgsubr
        </CharString>
        <CharString name="Euro">
          -7 671 398 rmoveto
          145 -48 callgsubr
          -412 44 callgsubr
          -138 -76 -59 76 -69 -76 -59 76 -139 -71 callgsubr
          412 -43 callsubr
          143 -193 -132 -16 callsubr
          -122 -65 callsubr
          128 117 59 -117 69 117 59 -117 127 -31 callgsubr
          122 -61 callsubr
          -134 vlineto
          endchar
        </CharString>
        <CharString name="F">
          -122 574 563 rmoveto
          59 -499 -622 200 265 260 59 -260 239 vlineto
          endchar
        </CharString>
        <CharString name="G">
          -23 639 418 24 callsubr
        </CharString>
        <CharString name="Gbreve">
          -32 516 669 59 callsubr
          457 -251 24 callsubr
        </CharString>
        <CharString name="H">
          46 501 3 callsubr
          -281 -233 281 -193 -622 193 282 233 -282 193 622 vlineto
          endchar
        </CharString>
        <CharString name="I">
          -360 81 3 callsubr
          -622 200 622 vlineto
          endchar
        </CharString>
        <CharString name="Iacute">
          189 callsubr
          -169 46 73 callgsubr
          endchar
        </CharString>
        <CharString name="Icircumflex">
          189 callsubr
          -364 47 rmoveto
          178 hlineto
          89 90 43 callsubr
          endchar
        </CharString>
        <CharString name="Idieresis">
          -382 76 3 callsubr
          -622 199 622 vlineto
          -345 166 rmoveto
          200 callsubr
          101 hmoveto
          -120 196 120 vlineto
          endchar
        </CharString>
        <CharString name="Idotaccent">
          -390 72 572 rmoveto
          -572 199 572 vlineto
          -197 170 rmoveto
          -123 191 123 vlineto
          endchar
        </CharString>
        <CharString name="Igrave">
          189 callsubr
          -166 198 154 callgsubr
        </CharString>
        <CharString name="Imacron">
          189 callsubr
          -334 47 275 callgsubr
          endchar
        </CharString>
        <CharString name="Iogonek">
          -382 137 -195 284 callgsubr
          622 -200 -622 16 278 callsubr
          hlineto
          endchar
        </CharString>
        <CharString name="J">
          -91 27 238 rmoveto
          -159 -71 callgsubr
          380 -43 callsubr
          543 -194 -532 -16 callsubr
          -88 -65 callsubr
          148 vlineto
          endchar
        </CharString>
        <CharString name="K">
          2 493 3 callsubr
          263 callgsubr
          -626 hmoveto
          -622 188 622 vlineto
          endchar
        </CharString>
        <CharString name="L">
          -147 268 59 199 callsubr
        </CharString>
        <CharString name="Lacute">
          -155 423 819 29 callgsubr
          14 -609 199 callsubr
        </CharString>
        <CharString name="Lcaron">
          -155 254 670 -13 callgsubr
          185 -611 199 callsubr
        </CharString>
        <CharString name="Lslash">
          -138 274 59 rmoveto
          240 vlineto
          156 52 rlineto
          68 vlineto
          -156 -52 rlineto
          255 -193 -319 vlineto
          -124 -41 rlineto
          -68 vlineto
          124 41 rlineto
          -235 484 59 vlineto
          endchar
        </CharString>
        <CharString name="M">
          196 520 135 rmoveto
          151 315 rlineto
          -450 174 622 -206 vlineto
          -181 -380 -177 380 rlineto
          -206 -622 173 448 hlineto
          149 -313 rlineto
          endchar
        </CharString>
        <CharString name="N">
          21 491 119 callgsubr
          endchar
        </CharString>
        <CharString name="NULL">
          -723 endchar
        </CharString>
        <CharString name="Nacute">
          17 296 668 73 callgsubr
          54 -197 204 callsubr
        </CharString>
        <CharString name="Ncaron">
          17 284 669 125 callsubr
          384 -202 204 callsubr
        </CharString>
        <CharString name="Ntilde">
          17 488 119 callgsubr
          -379 124 rmoveto
          -9 callsubr
          56 vlineto
          13 5 8 14 vhcurveto
          endchar
        </CharString>
        <CharString name="O">
          -15 640 105 callgsubr
          endchar
        </CharString>
        <CharString name="OE">
          266 455 201 callsubr
          -132 -65 callsubr
          442 -31 callgsubr
          132 -61 callsubr
          195 -473 rmoveto
          230 249 59 -249 215 286 59 -429 -13 vlineto
          8 -17 -21 5 -27 hhcurveto
          -295 44 callgsubr
          -464 -71 callgsubr
          295 hlineto
          27 21 4 8 17 hvcurveto
          -12 442 59 vlineto
          endchar
        </CharString>
        <CharString name="Oacute">
          -18 285 669 73 callgsubr
          215 -277 -34 callgsubr
          endchar
        </CharString>
        <CharString name="Ocircumflex">
          -18 86 669 rmoveto
          178 hlineto
          89 90 43 callsubr
          372 -282 -34 callgsubr
          endchar
        </CharString>
        <CharString name="Odieresis">
          -33 639 543 rmoveto
          53 -26 26 -53 vhcurveto
          -415 44 callgsubr
          -464 -71 callgsubr
          415 -43 callsubr
          -193 15 callsubr
          -42 257 rmoveto
          -119 196 119 vlineto
          -494 hmoveto
          -119 197 119 vlineto
          endchar
        </CharString>
        <CharString name="Ograve">
          96 callgsubr
          -151 289 154 callgsubr
        </CharString>
        <CharString name="Ohungarumlaut">
          -33 145 3 callsubr
          -30 callgsubr
          -464 -71 callgsubr
          415 -43 callsubr
          464 -48 callgsubr
          -114 -90 rmoveto
          -442 vlineto
          1 callsubr
          -127 296 rmoveto
          -141 247 callgsubr
          176 158 rlineto
          77 hmoveto
          -147 247 callgsubr
          182 158 rlineto
          endchar
        </CharString>
        <CharString name="Omacron">
          -18 114 669 275 callgsubr
          524 -184 -34 callgsubr
          endchar
        </CharString>
        <CharString name="Oslash">
          -4 462 89 35 callsubr
          -145 -65 callsubr
          30 vlineto
          207 264 rlineto
          -207 150 299 callgsubr
          145 -61 callsubr
          -39 vlineto
          -207 -264 rlineto
          420 425 rmoveto
          -87 hlineto
          -26 -33 rlineto
          -413 44 callgsubr
          -464 vlineto
          -27 7 -20 13 -13 vhcurveto
          -41 -52 rlineto
          87 hlineto
          26 33 rlineto
          407 -43 callsubr
          464 vlineto
          24 -6 19 -11 13 vhcurveto
          endchar
        </CharString>
        <CharString name="Otilde">
          96 callgsubr
          -181 214 rmoveto
          -9 callsubr
          56 vlineto
          13 5 8 14 vhcurveto
          endchar
        </CharString>
        <CharString name="P">
          -25 464 293 35 callsubr
          -165 301 165 -61 callsubr
          -389 90 rmoveto
          -622 193 203 310 vlineto
          53 26 26 53 hvcurveto
          261 73 callsubr
        </CharString>
        <CharString name="Q">
          -28 250 532 299 callgsubr
          132 -61 callsubr
          -442 -16 callsubr
          -132 -65 callsubr
          394 -187 rmoveto
          -125 97 rlineto
          35 -43 callsubr
          464 -48 callgsubr
          -415 44 callgsubr
          -464 -71 callgsubr
          174 hlineto
          114 -97 rlineto
          endchar
        </CharString>
        <CharString name="R">
          -7 268 563 46 callsubr
        </CharString>
        <CharString name="Racute">
          -12 595 819 29 callgsubr
          -158 -105 46 callsubr
        </CharString>
        <CharString name="Rcaron">
          -12 442 669 -13 callgsubr
          -3 -106 46 callsubr
        </CharString>
        <CharString name="S">
          -45 427 90 54 callsubr
        </CharString>
        <CharString name="Sacute">
          -47 275 668 73 callgsubr
          14 -729 54 callsubr
        </CharString>
        <CharString name="Scaron">
          -47 253 669 125 callsubr
          354 -734 54 callsubr
        </CharString>
        <CharString name="T">
          -133 584 622 156 callsubr
        </CharString>
        <CharString name="Tcaron">
          -130 382 669 -13 callgsubr
          377 -47 156 callsubr
        </CharString>
        <CharString name="Thorn">
          -25 456 192 35 callsubr
          -155 300 155 -61 callsubr
          -186 90 rmoveto
          102 -193 -622 193 102 300 vlineto
          53 26 26 53 hvcurveto
          260 73 callsubr
        </CharString>
        <CharString name="U">
          -8 261 161 callgsubr
          endchar
        </CharString>
        <CharString name="Uacute">
          -6 286 669 73 callgsubr
          -162 -198 4 callgsubr
          endchar
        </CharString>
        <CharString name="Ucircumflex">
          -6 90 669 rmoveto
          178 hlineto
          89 90 43 callsubr
          -8 -203 4 callgsubr
          endchar
        </CharString>
        <CharString name="Udieresis">
          -6 455 3 callsubr
          -532 -16 callsubr
          -132 -65 callsubr
          532 -193 -543 -71 callgsubr
          422 -43 callsubr
          543 vlineto
          -539 167 rmoveto
          -120 196 120 vlineto
          101 hmoveto
          200 callsubr
          endchar
        </CharString>
        <CharString name="Ugrave">
          153 callgsubr
          43 731 154 callgsubr
        </CharString>
        <CharString name="Uhungarumlaut">
          -26 261 622 272 callgsubr
          422 -43 callsubr
          543 -193 -532 -16 callsubr
          -132 -65 callsubr
          302 736 rmoveto
          -147 247 callgsubr
          182 158 rlineto
          -415 hmoveto
          -141 247 callgsubr
          176 158 rlineto
          endchar
        </CharString>
        <CharString name="Umacron">
          153 callgsubr
          -141 579 275 callgsubr
          endchar
        </CharString>
        <CharString name="Uogonek">
          -6 455 3 callsubr
          -532 -16 callsubr
          -131 -65 callsubr
          532 -193 -543 -71 callgsubr
          118 177 callsubr
          120 -43 callsubr
          543 vlineto
          endchar
        </CharString>
        <CharString name="Uring">
          -6 547 778 114 callsubr
          -168 -145 4 callgsubr
          endchar
        </CharString>
        <CharString name="V">
          -2 510 3 callsubr
          -150 -495 -149 495 rlineto
          -195 hlineto
          230 -622 rlineto
          228 hlineto
          231 622 rlineto
          endchar
        </CharString>
        <CharString name="W">
          396 916 3 callsubr
          -127 -487 -136 487 rlineto
          -189 hlineto
          -136 -487 -116 487 rlineto
          -195 hlineto
          199 -622 rlineto
          224 hlineto
          119 426 119 -426 rlineto
          225 hlineto
          199 622 rlineto
          endchar
        </CharString>
        <CharString name="X">
          -12 455 323 rmoveto
          217 299 rlineto
          -197 hlineto
          -124 -194 -124 194 rlineto
          -206 hlineto
          226 -312 -234 -310 rlineto
          196 hlineto
          142 209 141 -209 rlineto
          206 hlineto
          endchar
        </CharString>
        <CharString name="Y">
          -24 693 622 238 callsubr
          206 vlineto
          endchar
        </CharString>
        <CharString name="Yacute">
          -28 599 820 29 callgsubr
          264 231 callsubr
          206 vlineto
          endchar
        </CharString>
        <CharString name="Ydieresis">
          -24 305 789 191 callsubr
          297 120 rmoveto
          -196 -120 196 hlineto
          91 231 callsubr
          207 vlineto
          endchar
        </CharString>
        <CharString name="Z">
          -76 606 622 233 callsubr
        </CharString>
        <CharString name="Zacute">
          -78 583 820 29 callgsubr
          194 226 callgsubr
        </CharString>
        <CharString name="Zcaron">
          -78 427 669 -13 callgsubr
          -197 -106 rmoveto
          124 callsubr
          59 -549 vlineto
          endchar
        </CharString>
        <CharString name="Zdotaccent">
          -78 438 792 281 callsubr
          167 226 callgsubr
        </CharString>
        <CharString name="a">
          -61 276 59 -72 callgsubr
        </CharString>
        <CharString name="aacute">
          -66 580 683 29 callgsubr
          -137 -473 -72 callgsubr
        </CharString>
        <CharString name="abreve">
          -66 497 532 59 callsubr
          112 -473 -72 callgsubr
        </CharString>
        <CharString name="acircumflex">
          -66 328 144 callsubr
          32 -473 rmoveto
          16 callsubr
          98 hlineto
          25 11 -8 -23 hvcurveto
          -305 vlineto
          -22 -11 -9 -25 vhcurveto
          36 397 rmoveto
          -44 callgsubr
          -29 184 485 -184 vlineto
          endchar
        </CharString>
        <CharString name="acute">
          -56 167 506 73 callgsubr
          endchar
        </CharString>
        <CharString name="adieresis">
          -66 586 651 191 callsubr
          -298 120 191 callsubr
          -17 -472 -72 callgsubr
        </CharString>
        <CharString name="ae">
          288 731 426 rmoveto
          -36 callgsubr
          -117 -181 117 -31 callgsubr
          -337 -367 181 callgsubr
          88 vlineto
          158 37 rlineto
          -125 vlineto
          -25 -7 -6 -25 vhcurveto
          567 160 rmoveto
          4 4 183 -48 callgsubr
          -275 hlineto
          -75 -13 -13 -24 -7 hvcurveto
          24 -8 -23 13 -76 hhcurveto
          -246 44 callgsubr
          -103 184 93 -31 callgsubr
          95 hlineto
          25 7 -5 -25 hvcurveto
          -117 vlineto
          -342 -79 rlineto
          -122 -71 callgsubr
          246 hlineto
          76 23 13 24 8 hvcurveto
          -24 7 13 -13 75 hhcurveto
          273 -43 callsubr
          74 -179 -63 -16 callsubr
          -117 130 callsubr
          vlineto
          endchar
        </CharString>
        <CharString name="agrave">
          -66 436 532 147 callgsubr
          -14 -473 -72 callgsubr
        </CharString>
        <CharString name="amacron">
          -66 560 596 257 callgsubr
          -289 -479 -72 callgsubr
        </CharString>
        <CharString name="ampersand">
          149 272 59 181 callgsubr
          79 vlineto
          25 10 12 27 10 vhcurveto
          34 12 201 -169 rlineto
          -204 473 299 callgsubr
          106 258 callgsubr
          vlineto
          -31 -20 -14 -47 -17 vhcurveto
          -35 -13 rlineto
          -49 42 -17 19 39 vvcurveto
          540 -497 rmoveto
          -66 56 rlineto
          27 14 14 28 39 vvcurveto
          145 -149 -136 vlineto
          -217 182 75 27 rlineto
          82 30 46 31 75 vvcurveto
          97 -48 callgsubr
          -378 44 callgsubr
          -97 vlineto
          -63 32 -25 71 -59 vhcurveto
          -61 -22 rlineto
          -82 -28 -27 -24 -60 vvcurveto
          -86 -71 callgsubr
          446 hlineto
          53 -45 rlineto
          endchar
        </CharString>
        <CharString name="aogonek">
          -66 271 59 rmoveto
          16 callsubr
          98 hlineto
          25 11 -8 -23 hvcurveto
          -305 vlineto
          -22 -11 -9 -25 vhcurveto
          82 -254 264 callgsubr
          -29 hlineto
          -44 callgsubr
          -62 -38 vlineto
          67 callsubr
        </CharString>
        <CharString name="approxequal">
          86 569 411 rmoveto
          264 callsubr
          -154 182 62 vlineto
          28 9 7 31 vhcurveto
          95 55 -97 98 hhcurveto
          145 hlineto
          54 25 27 51 hvcurveto
          154 vlineto
          endchar
        </CharString>
        <CharString name="aring">
          -66 258 630 49 callgsubr
          56 -473 -72 callgsubr
        </CharString>
        <CharString name="asciicircum">
          -69 217 668 rmoveto
          -194 -340 rlineto
          170 hlineto
          134 239 133 -239 rlineto
          171 hlineto
          -194 340 rlineto
          endchar
        </CharString>
        <CharString name="asciitilde">
          80 277 260 rmoveto
          95 55 -98 98 hhcurveto
          145 hlineto
          54 24 28 51 hvcurveto
          94 -182 264 callsubr
          -94 182 61 vlineto
          28 9 8 31 vhcurveto
          endchar
        </CharString>
        <CharString name="asterisk">
          -162 215 662 rmoveto
          -61 vlineto
          -31 6 -29 9 -25 vhcurveto
          -22 17 -27 17 -29 10 -58 19 rcurveline
          -43 -131 58 -19 28 -9 30 -3 28 -1 rlinecurve
          -23 -15 -25 -20 -18 -25 -36 -49 rcurveline
          111 -81 36 49 18 25 12 28 8 25 rlinecurve
          7 -26 12 -30 18 -26 36 -50 rcurveline
          111 82 -36 49 -17 25 -23 20 -21 15 rlinecurve
          27 -2 31 2 30 10 59 19 rcurveline
          -44 131 -57 -19 -29 -10 -26 -15 -21 -15 rlinecurve
          10 26 7 30 32 vvcurveto
          61 vlineto
          endchar
        </CharString>
        <CharString name="at">
          433 410 426 rmoveto
          -44 -22 -22 -44 hvcurveto
          -216 vlineto
          -44 22 -22 44 vhcurveto
          187 hlineto
          28 18 9 22 5 hvcurveto
          -50 378 vlineto
          44 22 22 44 hvcurveto
          372 vlineto
          44 -22 22 -44 vhcurveto
          -889 hlineto
          -44 -22 -22 -44 hvcurveto
          -502 vlineto
          -44 22 -22 44 vhcurveto
          718 60 -607 hlineto
          -22 -4 4 22 hvcurveto
          462 vlineto
          22 4 4 22 vhcurveto
          667 hlineto
          22 4 -4 -22 hvcurveto
          -333 vlineto
          -22 -4 -4 -22 vhcurveto
          -119 308 -152 -25 hlineto
          17 -7 -16 8 -24 hhcurveto
          -102 -85 rmoveto
          22 4 4 22 vhcurveto
          93 hlineto
          20 9 -6 -18 1 hvcurveto
          -182 vlineto
          -18 -1 -9 -6 -20 hhcurveto
          -93 hlineto
          -22 -4 4 22 hvcurveto
          endchar
        </CharString>
        <CharString name="atilde">
          -66 224 588 rmoveto
          13 5 8 14 vhcurveto
          -9 callsubr
          vlineto
          47 -473 -72 callgsubr
        </CharString>
        <CharString name="b">
          -61 417 201 callsubr
          -98 hlineto
          -25 -11 9 22 hvcurveto
          305 vlineto
          23 11 8 25 vhcurveto
          98 -61 callsubr
          -108 90 273 callgsubr
          213 -184 -669 184 29 vlineto
          -19 9 16 -10 32 hhcurveto
          213 307 callsubr
          endchar
        </CharString>
        <CharString name="backslash">
          -240 -71 699 rmoveto
          423 -835 rlineto
          161 hlineto
          -424 835 rlineto
          endchar
        </CharString>
        <CharString name="bar">
          -398 78 778 rmoveto
          -936 170 936 vlineto
          endchar
        </CharString>
        <CharString name="braceleft">
          -293 340 568 rmoveto
          57 8 35 49 vhcurveto
          56 59 -88 hlineto
          -145 -73 -39 -146 hvcurveto
          -162 vlineto
          -64 -26 -28 -67 vhcurveto
          -12 -59 12 hlineto
          67 26 -27 -63 hvcurveto
          -167 vlineto
          -145 73 -40 145 vhcurveto
          88 59 -56 hlineto
          -49 -8 36 56 hvcurveto
          193 vlineto
          69 -31 53 -62 4 vhcurveto
          62 3 31 52 71 vvcurveto
          endchar
        </CharString>
        <CharString name="braceright">
          -281 103 375 rmoveto
          -71 30 -52 63 -3 vhcurveto
          -63 -4 -30 -53 -69 vvcurveto
          -193 vlineto
          -56 -8 -36 -49 vhcurveto
          -57 -59 88 hlineto
          146 72 40 145 hvcurveto
          167 vlineto
          63 26 27 67 vhcurveto
          12 59 -12 hlineto
          -67 -26 28 64 hvcurveto
          162 vlineto
          146 -72 39 -146 vhcurveto
          -88 -59 57 hlineto
          49 8 -35 -57 hvcurveto
          endchar
        </CharString>
        <CharString name="bracketleft">
          -354 405 660 rmoveto
          59 -334 -939 334 59 -140 821 vlineto
          endchar
        </CharString>
        <CharString name="bracketright">
          -354 298 719 rmoveto
          -334 -59 140 -821 -140 -59 334 hlineto
          endchar
        </CharString>
        <CharString name="breve">
          -56 419 655 rmoveto
          -54 vlineto
          -26 -5 -5 -26 vhcurveto
          -109 257 callsubr
          -163 -64 -71 callgsubr
          338 hlineto
          326 callgsubr
          vlineto
          endchar
        </CharString>
        <CharString name="brokenbar">
          -405 74 252 rmoveto
          -410 170 410 vlineto
          117 vmoveto
          409 -170 -409 vlineto
          endchar
        </CharString>
        <CharString name="bullet">
          -212 256 452 rmoveto
          -100 -82 -62 -76 -75 82 -63 100 99 83 63 75 76 -83 62 -99 hvcurveto
          endchar
        </CharString>
        <CharString name="c">
          -96 583 312 rmoveto
          297 callgsubr
          -364 -16 callgsubr
          364 -43 callsubr
          92 -179 -81 -16 callsubr
          -97 hlineto
          16 callsubr
          97 -61 callsubr
          -83 vlineto
          endchar
        </CharString>
        <CharString name="cacute">
          -105 571 683 29 callgsubr
          179 -220 rmoveto
          297 callgsubr
          -364 -16 callgsubr
          364 -43 callsubr
          92 -179 -81 -16 callsubr
          -97 hlineto
          16 callsubr
          97 -61 callsubr
          -83 vlineto
          endchar
        </CharString>
        <CharString name="caron">
          -56 246 500 125 callsubr
          endchar
        </CharString>
        <CharString name="ccaron">
          -105 398 532 -13 callgsubr
          -89 -47 3 callgsubr
          364 -43 callsubr
          92 -179 -81 -16 callsubr
          -97 hlineto
          16 callsubr
          97 -61 callsubr
          -83 179 94 73 callsubr
        </CharString>
        <CharString name="ccedilla">
          -105 234 155 callsubr
          344 359 rmoveto
          297 callgsubr
          -364 -16 callgsubr
          364 -43 callsubr
          92 -179 -81 -16 callsubr
          -97 hlineto
          16 callsubr
          97 -61 callsubr
          -83 vlineto
          endchar
        </CharString>
        <CharString name="cedilla">
          -56 301 155 callsubr
          endchar
        </CharString>
        <CharString name="cent">
          -105 578 312 rmoveto
          297 callgsubr
          -88 77 -187 -77 -89 -16 callgsubr
          89 -79 187 79 88 -43 callsubr
          92 -179 -81 -16 callsubr
          -97 hlineto
          16 callsubr
          97 -61 callsubr
          -83 vlineto
          endchar
        </CharString>
        <CharString name="circumflex">
          -56 66 506 rmoveto
          178 hlineto
          89 90 43 callsubr
          endchar
        </CharString>
        <CharString name="colon">
          -412 57 362 rmoveto
          -239 197 239 vlineto
          endchar
        </CharString>
        <CharString name="comma">
          -419 57 -140 rmoveto
          314 callsubr
        </CharString>
        <CharString name="commaaccent">
          -56 241 -264 126 callgsubr
        </CharString>
        <CharString name="copyright">
          350 1012 339 rmoveto
          179 -71 104 -241 vhcurveto
          -328 hlineto
          -241 -71 -104 -179 hvcurveto
          -59 vlineto
          -179 71 -101 241 vhcurveto
          328 hlineto
          241 71 101 179 hvcurveto
          -608 -221 rmoveto
          -140 -49 67 142 hvcurveto
          83 vlineto
          142 49 70 140 vhcurveto
          265 hlineto
          140 48 -70 -142 hvcurveto
          -83 vlineto
          -142 -48 -67 -140 vhcurveto
          -67 181 35 callsubr
          -68 -65 callsubr
          147 -31 callgsubr
          68 -61 callsubr
          -37 134 48 -48 callgsubr
          -239 44 callgsubr
          -169 -71 callgsubr
          239 -43 callsubr
          49 -134 vlineto
          endchar
        </CharString>
        <CharString name="currency">
          67 346 167 rmoveto
          -72 -26 8 73 hvcurveto
          84 vlineto
          73 26 24 72 vhcurveto
          100 hlineto
          71 26 -24 -73 hvcurveto
          -84 vlineto
          -73 -26 -8 -71 vhcurveto
          237 178 rmoveto
          24 -3 21 -7 19 vhcurveto
          58 57 -97 99 -81 -79 rlineto
          1 -15 -15 1 -17 hhcurveto
          -221 hlineto
          -17 -16 -1 -2 -14 hvcurveto
          -82 80 -97 -99 59 -58 rlineto
          -7 -18 -3 -21 -24 vvcurveto
          -93 vlineto
          -25 3 -22 7 -18 vhcurveto
          -59 -58 97 -99 82 80 rlineto
          -1 15 15 -1 17 hhcurveto
          221 hlineto
          17 15 1 1 14 hvcurveto
          82 -80 97 99 -58 57 rlineto
          7 19 3 22 25 vvcurveto
          endchar
        </CharString>
        <CharString name="d">
          -61 276 59 rmoveto
          16 callsubr
          98 hlineto
          25 11 -8 -23 hvcurveto
          -305 vlineto
          -22 -11 -9 -25 vhcurveto
          36 610 rmoveto
          -213 -37 callsubr
          -29 184 669 vlineto
          endchar
        </CharString>
        <CharString name="dagger">
          -99 582 470 rmoveto
          -171 152 -193 -152 -176 -59 176 -542 193 542 171 hlineto
          endchar
        </CharString>
        <CharString name="daggerdbl">
          -72 595 384 rmoveto
          59 -172 179 -193 -179 -176 -59 176 -286 -176 -59 176 -185 193 185 172 59 -172 286 vlineto
          endchar
        </CharString>
        <CharString name="danda">
          -304 343 callsubr
          endchar
        </CharString>
        <CharString name="dcaron">
          -29 405 457 rmoveto
          19 -9 -17 9 -31 -19 callgsubr
          31 17 9 19 9 hvcurveto
          -28 184 669 -184 vlineto
          254 hmoveto
          -192 48 vlineto
          91 129 rlineto
          63 vlineto
          -527 -610 rmoveto
          16 callsubr
          98 hlineto
          25 11 -8 -23 hvcurveto
          -305 vlineto
          -22 -11 -9 -25 vhcurveto
          endchar
        </CharString>
        <CharString name="dcroat">
          -61 275 59 rmoveto
          16 callsubr
          98 hlineto
          25 12 -8 -23 hvcurveto
          -305 vlineto
          -22 -12 -9 -25 vhcurveto
          290 540 rmoveto
          -69 70 -184 -70 -150 -59 150 -85 hlineto
          20 -8 -17 10 -32 hhcurveto
          -214 -16 callgsubr
          214 hlineto
          32 17 10 20 8 hvcurveto
          -30 184 540 69 vlineto
          endchar
        </CharString>
        <CharString name="degree">
          -90 575 544 rmoveto
          52 -25 26 -53 vhcurveto
          -360 hlineto
          -53 -25 -26 -52 hvcurveto
          -156 vlineto
          -53 25 -25 53 vhcurveto
          360 hlineto
          53 25 25 53 hvcurveto
          -174 11 35 callsubr
          -104 -65 callsubr
          134 -31 callgsubr
          104 323 callgsubr
        </CharString>
        <CharString name="dieresis">
          -56 384 646 rmoveto
          200 callsubr
          -495 hmoveto
          200 callsubr
          endchar
        </CharString>
        <CharString name="divide">
          -12 333 callgsubr
          209 147 rmoveto
          -94 191 94 vlineto
          -191 -314 rmoveto
          -94 191 94 vlineto
          endchar
        </CharString>
        <CharString name="dollar">
          -46 275 343 181 callgsubr
          158 -31 callgsubr
          121 -61 callsubr
          -99 189 110 -48 callgsubr
          -107 92 -188 -92 -108 116 callsubr
          266 -61 callsubr
          -163 -16 callsubr
          -122 -65 callsubr
          99 -189 -110 -71 callgsubr
          105 -90 188 90 110 147 callsubr
          endchar
        </CharString>
        <CharString name="dotaccent">
          -56 241 522 rmoveto
          191 123 -191 hlineto
          endchar
        </CharString>
        <CharString name="dotlessi">
          -395 71 485 rmoveto
          -485 184 485 vlineto
          endchar
        </CharString>
        <CharString name="dottedcircle">
          -63 139 517 rmoveto
          -26 18 -19 26 26 18 19 26 25 -18 19 -26 -26 -18 -19 -25 vhcurveto
          -82 -110 rmoveto
          -25 20 -19 26 24 20 19 25 25 -20 19 -24 -26 -20 -19 -25 vhcurveto
          -13 -126 rmoveto
          -25 19 -18 25 26 18 18 341 callsubr
          52 -116 rmoveto
          -26 18 -18 26 25 19 18 26 25 -19 19 -25 -26 -18 -19 -25 vhcurveto
          101 -75 rmoveto
          -26 19 -20 26 25 19 20 26 24 -19 20 -25 -26 -19 -20 -24 vhcurveto
          127 -16 rmoveto
          -26 18 -18 26 26 19 18 26 26 -19 18 -26 -26 -18 -18 -26 vhcurveto
          121 53 rmoveto
          -26 19 -18 25 25 20 18 26 25 -20 19 -25 -25 -19 -19 -25 vhcurveto
          73 98 rmoveto
          -25 19 -19 26 24 19 19 25 26 -19 19 -24 -26 -19 -19 -26 vhcurveto
          10 134 rmoveto
          -26 18 -18 26 25 19 18 26 26 -19 18 -25 -26 -18 -18 -26 vhcurveto
          -50 118 rmoveto
          -25 19 -19 25 26 18 19 341 callsubr
          -95 68 rmoveto
          -24 19 -20 26 25 18 20 24 26 -18 19 -25 -26 -19 -19 -26 vhcurveto
          -126 15 rmoveto
          -26 18 -18 26 26 18 18 26 26 -18 18 -26 -26 -18 -18 -26 vhcurveto
          endchar
        </CharString>
        <CharString name="doubledanda">
          62 343 callsubr
          366 -622 rmoveto
          193 622 -193 hlineto
          endchar
        </CharString>
        <CharString name="dvA">
          356 1099 3 callsubr
          -306 -38 callgsubr
          106 vlineto
          endchar
        </CharString>
        <CharString name="dvAA">
          721 1464 3 callsubr
          -671 -38 callgsubr
          165 107 callgsubr
        </CharString>
        <CharString name="dvAI">
          49 792 3 callsubr
          -94 183 callgsubr
          -529 40 callgsubr
        </CharString>
        <CharString name="dvAU">
          739 1482 3 callsubr
          -106 hlineto
          -40 217 rlineto
          -135 100 callsubr
          -358 -38 callgsubr
          161 107 callgsubr
        </CharString>
        <CharString name="dvAbbreviationsign">
          -61 414 219 rmoveto
          -62 callsubr
          -106 -89 callgsubr
          124 -106 callgsubr
          106 -67 callgsubr
          -266 89 301 callsubr
          -150 -100 callsubr
          361 -102 callgsubr
          150 -73 callsubr
          endchar
        </CharString>
        <CharString name="dvAcandra">
          356 1099 3 callsubr
          -306 -38 callgsubr
          106 vlineto
          -103 289 90 callsubr
        </CharString>
        <CharString name="dvAnusvara">
          -723 -284 687 345 callgsubr
        </CharString>
        <CharString name="dvAnusvara.amI">
          -723 67 677 rmoveto
          196 129 -196 hlineto
          endchar
        </CharString>
        <CharString name="dvAvagraha">
          -15 305 377 rmoveto
          -26 -8 6 26 hvcurveto
          121 vlineto
          26 8 -10 callgsubr
          334 59 -491 -23 callsubr
          -152 -74 callsubr
          260 hlineto
          26 7 -8 -26 hvcurveto
          -192 30 callgsubr
          -100 hlineto
          -26 -8 8 25 hvcurveto
          82 -199 -97 vlineto
          -53 23 -24 53 vhcurveto
          414 -102 callgsubr
          224 vlineto
          53 -23 24 -53 vhcurveto
          endchar
        </CharString>
        <CharString name="dvB">
          -268 499 3 callsubr
          -519 -59 519 hlineto
          -235 -294 rmoveto
          57 -6 53 0 vhcurveto
          277 -242 rlineto
          -238 -89 callgsubr
          286 -32 rmoveto
          6 43 -277 246 -12 callgsubr
          442 59 hlineto
          endchar
        </CharString>
        <CharString name="dvBA">
          96 297 137 75 callsubr
          -859 -59 553 -244 hlineto
          143 callgsubr
        </CharString>
        <CharString name="dvBH">
          8 123 callgsubr
          403 59 rmoveto
          -203 174 hlineto
          -44 callsubr
          203 vlineto
          endchar
        </CharString>
        <CharString name="dvBHA">
          366 123 callgsubr
          657 309 rmoveto
          -306 -250 -151 174 hlineto
          -44 callsubr
          151 -313 -98 callgsubr
        </CharString>
        <CharString name="dvBH_LA">
          1121 123 callgsubr
          1412 309 rmoveto
          -1116 -59 809 -78 258 callsubr
          -2 294 callgsubr
          -332 hlineto
          -98 callsubr
          -37 -147 174 vlineto
          -44 callsubr
          147 -237 -100 callsubr
          318 59 -162 -102 callsubr
          146 -426 201 127 callgsubr
        </CharString>
        <CharString name="dvBH_NA">
          1071 1174 169 -105 callsubr
          -722 -257 19 callgsubr
          1361 309 rmoveto
          -1100 -59 794 -78 -642 hlineto
          -98 callsubr
          -37 -136 174 vlineto
          -44 callsubr
          136 -159 8 callsubr
        </CharString>
        <CharString name="dvBH_R">
          -2 409 -97 rmoveto
          236 hlineto
          318 261 -5 146 rlineto
          -509 -102 178 callsubr
          106 34 callsubr
          161 hlineto
          194 59 rmoveto
          141 vlineto
          252 callsubr
          -75 200 60 21 callsubr
          -126 -304 109 callgsubr
          -136 -74 callsubr
          421 -51 callsubr
          153 323 59 vlineto
          endchar
        </CharString>
        <CharString name="dvBH_RA">
          352 449 208 178 callsubr
          106 34 callsubr
          161 hlineto
          646 276 rmoveto
          -295 -217 -157 141 hlineto
          252 callsubr
          -75 200 60 21 callsubr
          -126 -304 109 callgsubr
          -136 -74 callsubr
          421 -51 callsubr
          153 157 -147 131 callsubr
        </CharString>
        <CharString name="dvBH_R_YA">
          985 1422 173 -103 callgsubr
          -977 -336 178 callsubr
          108 vlineto
          24 256 callsubr
          1283 255 rmoveto
          -1007 -59 318 hlineto
          -82 callsubr
          -173 hlineto
          39 -6 -26 19 -45 hhcurveto
          -151 120 hlineto
          -70 callsubr
          -415 -23 callsubr
          -65 200 50 21 callsubr
          -105 -304 vlineto
          -98 callsubr
          -138 vlineto
          -53 24 -24 53 vhcurveto
          329 callsubr
          23 24 53 hvcurveto
          155 124 vlineto
          20 8 -3 -13 2 hvcurveto
          -184 vlineto
          -376 -275 rlineto
          235 hlineto
          232 186 rlineto
          505 -49 callgsubr
          -98 callgsubr
        </CharString>
        <CharString name="dvBH_VA">
          765 123 callgsubr
          1056 309 rmoveto
          -759 -59 453 -392 hlineto
          -64 callsubr
          -53 -23 -23 -53 hvcurveto
          -37 -151 174 vlineto
          -44 callsubr
          151 -159 -47 callgsubr
        </CharString>
        <CharString name="dvBH_YA">
          975 1412 159 callgsubr
          143 203 vlineto
          53 24 24 308 callsubr
          -960 -394 101 callsubr
          7 202 callgsubr
          1266 310 rmoveto
          -976 -59 287 hlineto
          -63 callgsubr
          -126 vlineto
          -11 callsubr
          -377 175 hlineto
          -5 callgsubr
          -160 -304 109 callgsubr
          -141 43 callgsubr
          158 130 -158 153 callsubr
        </CharString>
        <CharString name="dvB_BA">
          568 769 232 callsubr
          -674 hmoveto
          -19 callsubr
          808 485 rmoveto
          -1331 -59 1025 212 callsubr
          -344 hlineto
          -98 callsubr
          -212 vlineto
          40 callsubr
          25 16 17 callgsubr
          13 18 -5 24 hhcurveto
          359 -83 callgsubr
        </CharString>
        <CharString name="dvB_BHA">
          831 425 3 callsubr
          -445 -59 445 hlineto
          493 -394 19 callgsubr
          -621 -176 rmoveto
          -19 callsubr
          1072 485 rmoveto
          -306 -250 -151 174 hlineto
          -5 callgsubr
          -159 288 callgsubr
          -24 -53 hvcurveto
          -99 166 callsubr
          132 callgsubr
          151 -313 -98 callgsubr
        </CharString>
        <CharString name="dvB_BH_RA">
          812 417 3 callsubr
          -437 -59 437 hlineto
          492 -355 rmoveto
          -11 callsubr
          -128 hlineto
          -26 -6 8 25 hvcurveto
          106 vlineto
          25 6 7 202 callgsubr
          -612 -209 150 callsubr
          1059 485 rmoveto
          -295 -217 -157 141 hlineto
          -70 callsubr
          -415 -23 callsubr
          -75 200 60 -106 callgsubr
          107 -67 callgsubr
          -126 191 callgsubr
          -131 vlineto
          -250 228 rlineto
          200 59 -337 -65 callgsubr
          366 hlineto
          39 23 14 28 9 hvcurveto
          -2 8 9 -1 10 hhcurveto
          421 -102 callgsubr
          153 157 -147 229 callgsubr
          170 229 callsubr
          181 644 106 vlineto
          endchar
        </CharString>
        <CharString name="dvB_DA">
          481 297 137 rmoveto
          -19 callsubr
          612 289 248 callgsubr
          -1244 -59 935 -78 -300 vlineto
          -98 callsubr
          -213 vlineto
          -259 230 249 callsubr
          25 17 5 11 10 hvcurveto
          -11 13 18 -5 25 hhcurveto
          277 -93 callgsubr
          201 266 -201 -95 vlineto
          13 callgsubr
        </CharString>
        <CharString name="dvB_DHA">
          742 433 3 callsubr
          -453 -59 453 hlineto
          -136 -426 rmoveto
          -19 callsubr
          982 485 rmoveto
          -306 218 callgsubr
          -374 hlineto
          -49 callsubr
          -64 166 callsubr
          533 -83 callgsubr
        </CharString>
        <CharString name="dvB_DH_VA">
          1118 459 3 callsubr
          -479 -59 479 hlineto
          -162 -426 150 callsubr
          1365 485 rmoveto
          -730 -59 424 -392 hlineto
          -64 callsubr
          -53 -23 -23 -53 hvcurveto
          -239 vlineto
          -24 -8 -9 -26 vhcurveto
          -359 25 callgsubr
          -63 165 callsubr
          519 -3 callgsubr
        </CharString>
        <CharString name="dvB_JA">
          817 297 137 rmoveto
          -19 callsubr
          1057 485 rmoveto
          -1580 -59 1274 155 callgsubr
          -288 vlineto
          40 callsubr
          25 16 17 callgsubr
          13 18 -5 24 hhcurveto
          -17 callgsubr
        </CharString>
        <CharString name="dvB_JHA">
          850 1287 331 rmoveto
          -512 hlineto
          61 callgsubr
          159 hlineto
          -990 -426 rmoveto
          -19 callsubr
          1090 485 rmoveto
          -1613 -59 949 -78 -311 129 callgsubr
          277 246 callsubr
          -69 vlineto
          -26 311 callgsubr
          -152 53 -198 hlineto
          -266 236 249 callsubr
          12 164 callsubr
          -81 206 78 309 113 callsubr
          101 255 callsubr
          160 -272 154 callsubr
        </CharString>
        <CharString name="dvB_J_YA">
          1442 297 137 150 callsubr
          761 289 rmoveto
          59 -344 -316 vlineto
          -42 callgsubr
          -193 -288 vlineto
          -251 229 rlineto
          200 59 -337 -65 callgsubr
          358 42 callsubr
          424 -51 callsubr
          272 vlineto
          772 -253 82 callsubr
          -2205 -59 1516 290 callgsubr
          7 callsubr
          512 45 callsubr
        </CharString>
        <CharString name="dvB_JxA">
          810 720 -116 -25 callgsubr
          -423 124 150 callsubr
          1057 485 rmoveto
          -1573 -59 1267 155 callgsubr
          -288 165 callsubr
          -17 callgsubr
        </CharString>
        <CharString name="dvB_LA">
          859 297 137 rmoveto
          -19 callsubr
          1099 485 rmoveto
          -1622 -59 1315 233 callgsubr
          -212 vlineto
          40 callsubr
          12 10 1 2 8 hvcurveto
          -5 -53 callsubr
        </CharString>
        <CharString name="dvB_L_YA">
          1476 297 137 150 callsubr
          788 348 rmoveto
          -209 hlineto
          195 callsubr
          -2 294 callgsubr
          -332 -23 callsubr
          -213 vlineto
          -252 230 rlineto
          200 59 -337 -65 callgsubr
          358 hlineto
          12 10 1 3 9 hvcurveto
          -6 57 callsubr
          199 -21 callsubr
          142 hlineto
          630 -253 -43 callgsubr
          -2240 -59 1551 hlineto
          -97 callsubr
        </CharString>
        <CharString name="dvB_NA">
          819 923 169 -105 callsubr
          -626 -289 253 callsubr
          57 317 callsubr
          271 -236 rlineto
          -4 -6 -8 -2 -12 hhcurveto
          1059 485 rmoveto
          -1582 -59 1276 -78 -642 hlineto
          -98 callsubr
          -211 vlineto
          -258 228 249 callsubr
          25 16 17 callgsubr
          13 18 -5 24 250 callsubr
        </CharString>
        <CharString name="dvB_R">
          -265 478 3 callsubr
          -498 -59 498 hlineto
          48 -411 rmoveto
          -229 -89 callgsubr
          97 126 callsubr
          306 -239 rmoveto
          1 29 -276 245 rlineto
          197 59 -344 hlineto
          -98 callsubr
          -240 -100 callsubr
          184 hlineto
          -154 -171 rlineto
          209 hlineto
          159 191 rlineto
          48 39 hlineto
          endchar
        </CharString>
        <CharString name="dvB_RA">
          96 297 152 242 callsubr
          339 470 rmoveto
          -859 -59 553 -215 hlineto
          -100 9 -49 0 vhcurveto
          -253 227 rlineto
          197 59 -344 hlineto
          -98 callsubr
          187 callsubr
        </CharString>
        <CharString name="dvB_SA">
          835 1272 339 rmoveto
          -154 hlineto
          -81 callsubr
          167 hlineto
          -975 -426 rmoveto
          -19 callsubr
          1075 485 rmoveto
          -1598 -59 906 hlineto
          -50 callgsubr
          -150 137 -200 -278 hlineto
          -257 228 249 callsubr
          11 10 1 2 8 hvcurveto
          -5 vlineto
          -27 callgsubr
        </CharString>
        <CharString name="dvB_SHA">
          832 425 3 callsubr
          -445 -59 445 hlineto
          -128 -426 rmoveto
          -19 callsubr
          113 485 174 callgsubr
          -176 hlineto
          40 callsubr
          12 164 callsubr
          -5 100 callgsubr
        </CharString>
        <CharString name="dvB_TA">
          525 297 137 rmoveto
          -19 callsubr
          764 485 rmoveto
          -1287 -59 983 -78 -349 hlineto
          -98 callsubr
          -212 vlineto
          40 callsubr
          12 10 1 2 8 hvcurveto
          -5 -40 callsubr
        </CharString>
        <CharString name="dvB_VA">
          499 297 137 rmoveto
          -19 callsubr
          739 485 rmoveto
          -1262 -59 956 -392 hlineto
          -64 callsubr
          -53 -23 -23 -53 hvcurveto
          -212 vlineto
          -258 229 rlineto
          207 59 -344 hlineto
          -53 -24 -23 -53 hvcurveto
          -255 vlineto
          -53 24 -23 53 vhcurveto
          365 -3 callgsubr
        </CharString>
        <CharString name="dvB_YA">
          730 1167 173 -103 callgsubr
          -870 -426 rmoveto
          -19 callsubr
          970 485 rmoveto
          -1493 -59 804 6 callgsubr
          -171 hlineto
          40 callsubr
          25 16 17 callgsubr
          13 18 -5 24 hhcurveto
          -91 callgsubr
        </CharString>
        <CharString name="dvC">
          -258 521 3 callsubr
          -541 -59 541 hlineto
          -188 -426 rmoveto
          -4 callsubr
          430 59 hlineto
          endchar
        </CharString>
        <CharString name="dvCA">
          320 callsubr
          -392 hlineto
          -26 -8 -8 -26 vhcurveto
          -193 hlineto
          -4 callsubr
          351 -83 callgsubr
        </CharString>
        <CharString name="dvCH">
          321 1064 563 rmoveto
          59 -1084 -59 113 vlineto
          79 callgsubr
          133 callsubr
          53 -23 23 -53 vhcurveto
          -368 -54 callgsubr
          endchar
        </CharString>
        <CharString name="dvCHA">
          325 620 485 rmoveto
          -89 -54 callgsubr
          308 hlineto
          448 hmoveto
          59 -1088 -59 113 vlineto
          79 callgsubr
          133 callsubr
          53 -23 23 -53 vhcurveto
          -92 78 hlineto
          endchar
        </CharString>
        <CharString name="dvCH_RA">
          325 622 485 rmoveto
          -91 76 callgsubr
          310 hlineto
          446 hmoveto
          59 -1088 -59 113 vlineto
          105 callsubr
          53 -23 23 -53 vhcurveto
          -92 78 hlineto
          endchar
        </CharString>
        <CharString name="dvCH_R_YA">
          1268 1705 66 callgsubr
          -948 76 callgsubr
          1393 hlineto
          36 callsubr
          -2031 -59 113 hlineto
          105 callsubr
          6 0 6 -1 5 vhcurveto
          348 hlineto
          49 callsubr
        </CharString>
        <CharString name="dvCH_YA">
          1273 1710 66 callgsubr
          -570 -1 hlineto
          1 -5 -5 0 -5 hhcurveto
          -368 -54 callgsubr
          1398 hlineto
          36 callsubr
          -2036 -59 113 hlineto
          79 callgsubr
          133 callsubr
          6 0 6 -1 5 vhcurveto
          353 314 callgsubr
          -230 -156 hlineto
          -53 23 91 callsubr
        </CharString>
        <CharString name="dvC_CA">
          599 1342 3 callsubr
          -1362 -59 1043 224 callgsubr
          -401 -59 86 259 callgsubr
          -220 44 callsubr
          -197 -89 callgsubr
          225 296 callsubr
          95 59 -408 -59 99 259 callgsubr
          -236 -100 callsubr
          357 42 callsubr
          351 -41 callgsubr
          563 119 vlineto
          endchar
        </CharString>
        <CharString name="dvC_CHA">
          818 1114 485 rmoveto
          -89 -54 callgsubr
          308 hlineto
          448 hmoveto
          59 -1582 -59 607 vlineto
          79 callgsubr
          -71 44 callsubr
          -206 hlineto
          -4 callsubr
          366 hlineto
          12 321 callgsubr
          743 146 callsubr
          -92 78 hlineto
          endchar
        </CharString>
        <CharString name="dvC_CH_VA">
          812 1118 485 rmoveto
          -102 -23 callsubr
          -149 vlineto
          -53 23 -24 119 callsubr
          120 -106 callgsubr
          104 -67 callgsubr
          -279 vlineto
          -11 callsubr
          -462 -46 callsubr
          132 108 callgsubr
          59 -96 -46 callsubr
          158 -68 callsubr
          327 hlineto
          -183 -711 rmoveto
          213 callgsubr
          105 -68 callsubr
          190 -137 hlineto
          -72 callsubr
          464 711 rmoveto
          59 -1575 -59 593 vlineto
          -10 47 callsubr
          -71 44 callsubr
          -191 hlineto
          -4 callsubr
          351 hlineto
          12 11 1 3 8 hvcurveto
          -41 5 25 -18 46 hhcurveto
          93 hlineto
          -9 95 callsubr
          -118 -74 callsubr
          303 -91 callsubr
          -54 171 275 88 vlineto
          53 24 24 53 hvcurveto
          309 35 callgsubr
          -81 78 hlineto
          endchar
        </CharString>
        <CharString name="dvC_MA">
          844 1283 485 335 callgsubr
          -353 -394 rmoveto
          -24 -6 -8 -26 vhcurveto
          -128 -107 callgsubr
          160 hlineto
          657 196 rmoveto
          -1607 -59 950 134 callgsubr
          -251 334 callgsubr
          -184 hlineto
          -4 callsubr
          344 hlineto
          24 17 5 10 11 hvcurveto
          -10 12 138 callsubr
        </CharString>
        <CharString name="dvC_NA">
          837 941 223 callsubr
          639 196 rmoveto
          -1600 -59 1294 -78 -642 148 callgsubr
          -188 hlineto
          -4 callsubr
          348 53 callgsubr
          426 340 callsubr
          -20 callgsubr
        </CharString>
        <CharString name="dvC_R">
          -241 -20 563 rmoveto
          522 59 -522 hlineto
          36 -196 rmoveto
          99 259 callgsubr
          -219 -100 callsubr
          167 hlineto
          -161 -172 rlineto
          210 hlineto
          173 189 rlineto
          41 42 -274 20 callsubr
          208 296 callsubr
          101 59 -414 hlineto
          endchar
        </CharString>
        <CharString name="dvC_RA">
          320 callsubr
          -375 hlineto
          -72 callsubr
          -193 20 callsubr
          208 51 callsubr
          -219 -100 callsubr
          167 hlineto
          -161 -172 rlineto
          210 hlineto
          167 182 rlineto
          -105 -98 callgsubr
        </CharString>
        <CharString name="dvC_YA">
          737 1174 173 -43 callgsubr
          -1500 -59 811 6 callgsubr
          157 callsubr
          -177 hlineto
          -4 callsubr
          337 53 callgsubr
          -91 callgsubr
        </CharString>
        <CharString name="dvCandrabindu">
          -723 -372 685 rmoveto
          432 hlineto
          55 18 28 50 hvcurveto
          89 -165 -76 179 callsubr
          -184 -89 callgsubr
          76 -164 -89 vlineto
          -50 18 -28 55 vhcurveto
          162 125 rmoveto
          108 99 -108 hlineto
          endchar
        </CharString>
        <CharString name="dvD">
          8 451 hmoveto
          201 266 -201 -95 hlineto
          1 callgsubr
          344 137 109 59 -771 -59 462 -78 -300 -65 callgsubr
          277 -91 callsubr
          188 -147 rmoveto
          -201 hlineto
          131 -179 rlineto
          202 hlineto
          endchar
        </CharString>
        <CharString name="dvDA">
          8 642 172 callsubr
          -771 -59 462 -78 -300 vlineto
          -53 -24 -23 -53 hvcurveto
          -255 -35 callgsubr
        </CharString>
        <CharString name="dvDA_mvR">
          10 642 103 callgsubr
          111 59 -773 -59 462 -78 -300 vlineto
          -80 callgsubr
          277 -93 callgsubr
          -114 vlineto
          189 callgsubr
          331 59 -182 hlineto
          140 callgsubr
          166 325 -201 -95 hlineto
          13 callgsubr
        </CharString>
        <CharString name="dvDD">
          -9 256 -60 56 callgsubr
          169 486 248 callgsubr
          -755 -59 446 -78 -281 vlineto
          -53 -23 -23 -53 hvcurveto
          -81 vlineto
          -53 23 -23 53 vhcurveto
          -67 callsubr
        </CharString>
        <CharString name="dvDDA">
          -8 626 172 callsubr
          -755 -59 446 -78 -281 vlineto
          -53 -23 -23 -53 hvcurveto
          -81 vlineto
          -53 23 -23 53 vhcurveto
          -67 callsubr
        </CharString>
        <CharString name="dvDDH">
          33 272 -60 56 callgsubr
          163 486 rmoveto
          137 140 59 -796 -59 456 -78 -285 vlineto
          -22 callsubr
          endchar
        </CharString>
        <CharString name="dvDDHA">
          33 636 103 callgsubr
          140 59 -796 -59 456 -78 -285 vlineto
          -22 callsubr
          endchar
        </CharString>
        <CharString name="dvDDH_DDHA">
          66 675 103 callgsubr
          134 59 -829 -59 495 -78 -320 vlineto
          -53 -23 -24 -53 hvcurveto
          -215 vlineto
          -46 285 callsubr
          -44 vvcurveto
          -206 -74 callsubr
          485 -102 callgsubr
          82 -73 callsubr
          -197 -60 57 -67 callgsubr
          -51 -92 callgsubr
          -188 -89 callgsubr
          200 134 callsubr
          328 -102 callgsubr
          81 vlineto
          53 -23 24 -53 vhcurveto
          -197 -60 57 hlineto
          26 7 -8 -25 hvcurveto
          -50 74 callgsubr
          -188 20 callsubr
          201 134 callsubr
          endchar
        </CharString>
        <CharString name="dvDDH_R">
          36 282 -200 56 callgsubr
          153 626 rmoveto
          137 143 59 -799 -59 456 -78 -285 306 callgsubr
          68 hlineto
          -95 -161 304 callgsubr
          71 151 71 -151 304 callgsubr
          -94 161 rlineto
          61 136 callgsubr
        </CharString>
        <CharString name="dvDDH_RA">
          36 636 103 callgsubr
          143 59 -799 -59 456 -78 -285 306 callgsubr
          63 315 callsubr
          73 156 73 -156 304 callgsubr
          -92 162 rlineto
          57 136 callgsubr
        </CharString>
        <CharString name="dvDDH_YA">
          984 1421 193 callsubr
          -558 78 785 hlineto
          36 callsubr
          -1747 -59 456 -78 -285 hlineto
          -22 callsubr
          731 hlineto
          49 callsubr
        </CharString>
        <CharString name="dvDDHxA">
          33 296 -194 -25 callgsubr
          340 491 rmoveto
          137 140 59 -796 -59 456 -78 -285 vlineto
          -22 callsubr
          endchar
        </CharString>
        <CharString name="dvDD_DDA">
          17 646 103 callgsubr
          114 59 -780 -59 466 -78 -299 109 callgsubr
          -45 342 callsubr
          7 -6 -26 hvcurveto
          -61 30 callgsubr
          -130 -46 callsubr
          44 -200 -48 318 callsubr
          -19 -45 vvcurveto
          -16 342 callsubr
          8 -7 -26 hvcurveto
          -62 vlineto
          -26 311 callgsubr
          -130 152 callgsubr
          41 -200 -57 -100 callsubr
          443 -102 callgsubr
          94 -73 callsubr
          -290 -46 callsubr
          14 -68 callsubr
          287 -102 callgsubr
          92 -73 callsubr
          -290 hlineto
          -26 -7 8 26 hvcurveto
          13 246 callgsubr
        </CharString>
        <CharString name="dvDD_DDHA">
          15 646 103 callgsubr
          112 59 -778 -59 466 -78 -299 109 callgsubr
          -47 -74 callsubr
          290 246 callsubr
          -63 vlineto
          -26 311 callgsubr
          -130 152 callgsubr
          45 -200 -55 318 callsubr
          -18 -45 vvcurveto
          -194 -74 callsubr
          442 -51 callsubr
          84 vlineto
          53 -24 24 -53 vhcurveto
          -184 -60 45 -67 callgsubr
          -54 -92 callgsubr
          -146 -89 callgsubr
          198 34 callsubr
          287 hlineto
          53 23 24 53 hvcurveto
          94 -73 callsubr
          -290 -46 callsubr
          15 246 callgsubr
        </CharString>
        <CharString name="dvDD_R">
          -2 258 -199 rmoveto
          130 -179 rlineto
          203 hlineto
          -132 179 rlineto
          168 625 rmoveto
          137 115 59 -762 -59 448 -78 -281 vlineto
          175 callsubr
          -114 330 callgsubr
          7 25 hvcurveto
          70 -200 -85 -74 callsubr
          48 hlineto
          -95 -161 304 callgsubr
          70 151 66 -151 304 callgsubr
          -89 161 rlineto
          47 -102 callgsubr
          146 vlineto
          53 -23 20 callgsubr
        </CharString>
        <CharString name="dvDD_RA">
          -2 627 103 callgsubr
          115 59 -762 -59 448 -78 -281 vlineto
          175 callsubr
          -114 330 callgsubr
          7 25 hvcurveto
          70 -200 -85 -74 callsubr
          43 331 callgsubr
          68 -156 304 callgsubr
          -87 162 rlineto
          43 -102 callgsubr
          146 vlineto
          53 -23 20 callgsubr
        </CharString>
        <CharString name="dvDD_VA">
          49 299 -126 rmoveto
          -85 callsubr
          100 -106 callgsubr
          175 -130 hlineto
          -72 callsubr
          231 552 rmoveto
          137 121 59 -812 -59 490 -78 -317 109 callgsubr
          -73 vlineto
          -53 23 -24 53 vhcurveto
          312 hlineto
          26 7 -6 -26 hvcurveto
          -97 30 callgsubr
          -154 -89 callgsubr
          63 -200 -61 331 callsubr
          -18 -46 hvcurveto
          -106 -74 callsubr
          288 -91 callsubr
          -47 172 263 vlineto
          36 6 16 24 44 vvcurveto
          128 -73 callsubr
          -312 hlineto
          -26 -7 8 26 hvcurveto
          41 246 callgsubr
        </CharString>
        <CharString name="dvDD_YA">
          946 1382 66 callgsubr
          -529 78 755 hlineto
          307 59 rmoveto
          -1709 -59 448 -78 -281 hlineto
          -53 -23 -23 -53 hvcurveto
          -81 vlineto
          -53 23 -23 53 vhcurveto
          10 callsubr
          -94 -74 callsubr
          425 -102 callgsubr
          159 305 callsubr
          49 -68 callsubr
          695 314 callgsubr
          -230 -156 hlineto
          -74 callgsubr
          504 68 callgsubr
          201 114 callgsubr
        </CharString>
        <CharString name="dvDDxA">
          -8 277 -194 -25 callgsubr
          349 491 248 callgsubr
          -755 -59 446 -78 -281 vlineto
          -53 -23 -23 -53 hvcurveto
          -81 vlineto
          -53 23 -23 53 vhcurveto
          -67 callsubr
        </CharString>
        <CharString name="dvDH">
          -65 306 137 rmoveto
          -77 callgsubr
          656 59 hlineto
          endchar
        </CharString>
        <CharString name="dvDHA">
          277 1020 3 callsubr
          -306 218 callgsubr
          -374 hlineto
          -77 callgsubr
          533 -83 callgsubr
        </CharString>
        <CharString name="dvDH_MA">
          1004 1443 485 rmoveto
          -153 78 153 hlineto
          -353 -394 -105 callsubr
          657 196 rmoveto
          -1068 -59 411 -78 -303 148 callgsubr
          -370 hlineto
          -77 callgsubr
          531 hlineto
          25 16 5 10 11 hvcurveto
          -10 13 18 -5 24 251 callgsubr
        </CharString>
        <CharString name="dvDH_NA">
          992 1096 25 callsubr
          -1058 -59 751 -78 -642 148 callgsubr
          -369 hlineto
          -77 callgsubr
          530 53 callgsubr
          426 340 callsubr
          -426 201 114 callgsubr
        </CharString>
        <CharString name="dvDH_N_YA">
          1619 1092 169 -105 callsubr
          336 hmoveto
          59 -646 vlineto
          253 callgsubr
          -366 hlineto
          -77 callgsubr
          527 42 callsubr
          427 -76 callsubr
          vlineto
          771 -253 -43 callgsubr
          -1708 -59 1019 hlineto
          -97 callsubr
        </CharString>
        <CharString name="dvDH_R">
          -75 306 154 rmoveto
          76 callsubr
          328 302 callgsubr
          238 hlineto
          197 186 rlineto
          50 45 hlineto
          endchar
        </CharString>
        <CharString name="dvDH_RA">
          277 1020 3 callsubr
          -306 -434 hlineto
          -72 callsubr
          -374 hlineto
          76 callsubr
          326 302 callgsubr
          240 hlineto
          193 182 rlineto
          -105 -98 callgsubr
        </CharString>
        <CharString name="dvDH_VA">
          661 1404 3 callsubr
          -730 -59 424 -392 hlineto
          194 callsubr
          -239 vlineto
          -24 -8 -9 -26 vhcurveto
          -358 hlineto
          -77 callgsubr
          519 197 callsubr
        </CharString>
        <CharString name="dvDH_YA">
          897 1334 173 -43 callgsubr
          -971 -59 282 6 callgsubr
          157 callsubr
          -364 hlineto
          -77 callgsubr
          525 53 callgsubr
          -91 callgsubr
        </CharString>
        <CharString name="dvD_BA">
          54 474 -87 rmoveto
          -1 -4 -3 0 -5 hhcurveto
          -160 152 callgsubr
          42 vlineto
          64 -5 51 0 vhcurveto
          232 26 rmoveto
          -63 vlineto
          -68 4 -46 0 vhcurveto
          -193 177 rlineto
          379 298 rmoveto
          137 111 59 -817 -59 506 -78 -337 vlineto
          -98 callsubr
          -184 205 callgsubr
          -18 -46 vvcurveto
          -161 -100 callsubr
          315 -91 callsubr
          -61 198 513 -198 -128 -193 vlineto
          213 callgsubr
          174 -106 callgsubr
          endchar
        </CharString>
        <CharString name="dvD_BHA">
          245 879 172 callsubr
          -1008 -59 699 -78 -295 109 callgsubr
          -215 -74 callsubr
          273 hlineto
          14 11 2 7 7 hvcurveto
          -127 200 277 -200 -72 vlineto
          -22 -2 -8 -6 -24 hhcurveto
          -120 -89 callgsubr
          185 -106 callgsubr
          -315 -225 rmoveto
          50 -20 25 -54 vhcurveto
          -137 -59 20 hlineto
          26 6 -9 -24 hvcurveto
          -265 159 81 375 59 -375 vlineto
          endchar
        </CharString>
        <CharString name="dvD_B_RA">
          52 477 -8 rmoveto
          -180 -89 callgsubr
          33 vlineto
          68 -5 29 0 vhcurveto
          238 20 rmoveto
          -43 vlineto
          -65 6 -48 0 vhcurveto
          -212 156 rlineto
          396 252 rmoveto
          137 108 59 -815 -59 507 -78 -343 vlineto
          -98 callsubr
          -138 227 callgsubr
          -127 vlineto
          -53 24 -24 53 vhcurveto
          144 hlineto
          -147 -158 rlineto
          209 hlineto
          147 170 rlineto
          -91 199 468 -199 -89 -199 vlineto
          213 callgsubr
          119 vlineto
          25 7 16 26 vhcurveto
          endchar
        </CharString>
        <CharString name="dvD_DA">
          74 710 103 callgsubr
          107 59 -837 -59 530 -78 -355 109 callgsubr
          -76 vlineto
          312 callgsubr
          -119 -74 callsubr
          339 -91 callsubr
          -73 201 228 -201 -71 vlineto
          -72 callsubr
          -180 20 callsubr
          111 -106 callgsubr
          161 59 -161 20 callsubr
          65 -106 callgsubr
          endchar
        </CharString>
        <CharString name="dvD_DHA">
          260 196 115 rmoveto
          263 callsubr
          48 59 -174 hlineto
          167 callsubr
          698 340 248 callgsubr
          -1023 -59 714 -78 -295 109 callgsubr
          -209 vlineto
          143 callsubr
        </CharString>
        <CharString name="dvD_GA">
          3 634 103 callgsubr
          112 59 -766 -59 455 -78 -293 vlineto
          -98 callsubr
          -255 vlineto
          -52 23 -23 50 -1 vhcurveto
          -86 74 callgsubr
          -43 -59 173 -51 callsubr
          101 100 vlineto
          14 11 3 6 7 hvcurveto
          -226 200 405 -200 -95 vlineto
          -94 callsubr
          endchar
        </CharString>
        <CharString name="dvD_GHA">
          260 894 172 callsubr
          -1023 -59 714 -78 -295 109 callgsubr
          -67 -225 vlineto
          167 callsubr
          29 vlineto
          263 callsubr
          99 -83 hlineto
          143 callsubr
        </CharString>
        <CharString name="dvD_G_RA">
          3 634 103 callgsubr
          112 59 -766 -59 455 -78 -300 109 callgsubr
          -255 vlineto
          -52 22 -23 51 -1 vhcurveto
          -92 vlineto
          -25 311 callgsubr
          -43 -59 171 hlineto
          53 26 -79 callgsubr
          107 126 vlineto
          14 11 3 6 7 hvcurveto
          -87 vlineto
          -317 -244 rlineto
          192 hlineto
          69 56 rlineto
          42 34 22 30 0 0 -8 -33 -60 vvcurveto
          -31 175 514 -175 -95 vlineto
          -72 callsubr
          -137 291 callgsubr
        </CharString>
        <CharString name="dvD_MA">
          378 822 175 rmoveto
          -163 152 -190 -95 hlineto
          -72 callsubr
          -135 -89 callgsubr
          164 -106 callgsubr
          349 137 173 hlineto
          299 59 rmoveto
          -1141 -59 470 -78 -307 -23 callsubr
          -194 -74 callsubr
          294 -91 callsubr
          -111 190 79 163 -128 193 575 106 vlineto
          endchar
        </CharString>
        <CharString name="dvD_NA">
          2 745 3 callsubr
          -765 -59 465 134 callgsubr
          -215 -100 callsubr
          300 -91 callsubr
          -92 -282 109 callgsubr
          -76 187 61 34 callsubr
          138 -116 171 433 -171 -82 hlineto
          -72 callsubr
          -142 20 callsubr
          185 -106 callgsubr
          347 137 100 hlineto
          endchar
        </CharString>
        <CharString name="dvD_R">
          10 653 hmoveto
          266 -200 -78 228 callsubr
          7 25 hvcurveto
          208 -106 callgsubr
          343 137 110 59 -773 -59 464 -78 -301 -23 callsubr
          144 callgsubr
          vlineto
          212 -136 rmoveto
          -201 hlineto
          131 -179 rlineto
          202 hlineto
          endchar
        </CharString>
        <CharString name="dvD_RA">
          10 643 103 callgsubr
          110 59 -773 -59 464 -78 -301 109 callgsubr
          50 callgsubr
        </CharString>
        <CharString name="dvD_VA">
          59 497 222 callsubr
          382 278 rmoveto
          137 115 59 -822 -59 507 -78 -337 109 callgsubr
          111 callsubr
        </CharString>
        <CharString name="dvD_YA">
          280 717 161 rmoveto
          -72 callsubr
          -378 300 callgsubr
          62 vlineto
          25 30 callsubr
          169 59 -169 300 callgsubr
          49 -26 callgsubr
          260 137 152 hlineto
          36 callsubr
          -1043 -59 385 -78 -216 hlineto
          -98 callsubr
          -58 vlineto
          -46 20 102 callsubr
          -20 -18 -45 vvcurveto
          -73 -100 callsubr
          536 -91 callsubr
          -80 200 566 106 vlineto
          endchar
        </CharString>
        <CharString name="dvE">
          49 792 3 callsubr
          -812 40 callgsubr
        </CharString>
        <CharString name="dvEcandra">
          49 613 178 callgsubr
          613 -63 rmoveto
          -812 40 callgsubr
        </CharString>
        <CharString name="dvEight">
          -14 453 372 rmoveto
          -23 -8 -10 -25 vhcurveto
          -130 hlineto
          269 callgsubr
          158 298 callgsubr
          132 160 callsubr
          -438 vmoveto
          -25 -8 -8 -25 vhcurveto
          -132 325 callsubr
          155 vlineto
          24 7 9 25 vhcurveto
          132 hlineto
          25 8 -9 -24 hvcurveto
          192 294 rmoveto
          47 -16 34 -57 vhcurveto
          -436 hlineto
          -56 -17 -34 -47 hvcurveto
          -148 vlineto
          -52 30 -27 50 -1 vhcurveto
          -3 vlineto
          -49 -1 -31 -25 -52 vvcurveto
          -150 vlineto
          -48 17 -34 56 vhcurveto
          436 hlineto
          57 16 34 48 hvcurveto
          150 vlineto
          52 -30 25 -50 1 vhcurveto
          3 vlineto
          50 1 30 27 52 vvcurveto
          endchar
        </CharString>
        <CharString name="dvEyelash">
          -45 580 401 rmoveto
          -11 callsubr
          -315 152 callgsubr
          51 -194 -67 -100 callsubr
          622 -102 callgsubr
          67 -200 vlineto
          -600 170 rmoveto
          -59 800 59 vlineto
          endchar
        </CharString>
        <CharString name="dvEyelash_HA">
          301 934 103 callgsubr
          110 59 -1064 -59 754 -78 -290 109 callgsubr
          -54 -136 vlineto
          213 callgsubr
          51 -194 -66 vlineto
          -53 24 -24 53 vhcurveto
          316 hlineto
          -3 9 10 -2 13 hhcurveto
          -5 vlineto
          -43 -1 -19 -18 -46 vvcurveto
          -145 -74 callsubr
          507 59 -350 -89 callgsubr
          141 -68 callsubr
          131 160 callsubr
          -90 188 99 vlineto
          337 callgsubr
          -264 -46 callsubr
          37 -106 callgsubr
          endchar
        </CharString>
        <CharString name="dvEyelash_YA">
          523 960 173 0 callsubr
          -1286 -59 597 hlineto
          26 6 184 callsubr
          -6 -88 callsubr
          -345 152 callgsubr
          51 -194 -67 -100 callsubr
          248 -155 -78 callgsubr
        </CharString>
        <CharString name="dvFive">
          9 280 391 rmoveto
          172 370 59 -570 -290 200 1 149 vlineto
          26 6 -10 -24 hvcurveto
          -207 vlineto
          -24 -6 -9 -26 vhcurveto
          -116 325 callsubr
          117 -200 -131 vlineto
          -48 17 -30 56 vhcurveto
          434 hlineto
          56 16 34 48 hvcurveto
          231 327 callgsubr
          endchar
        </CharString>
        <CharString name="dvFour">
          2 691 163 rmoveto
          -81 163 -185 -163 -193 hlineto
          229 459 rlineto
          -198 hlineto
          -221 -438 rlineto
          -80 383 -104 185 104 81 vlineto
          endchar
        </CharString>
        <CharString name="dvG">
          -5 271 137 rmoveto
          -56 callgsubr
          314 485 rmoveto
          -758 -59 197 callgsubr
          vlineto
          endchar
        </CharString>
        <CharString name="dvGA">
          363 271 137 rmoveto
          -56 callgsubr
          682 485 rmoveto
          -1126 -59 -66 callgsubr
          144 107 callgsubr
        </CharString>
        <CharString name="dvGH">
          -234 307 220 callsubr
          117 -68 callsubr
          138 59 -138 -46 callsubr
          119 -68 callsubr
          239 59 -566 -59 109 hlineto
          28 callgsubr
          486 59 hlineto
          endchar
        </CharString>
        <CharString name="dvGHA">
          152 589 171 rmoveto
          -72 callsubr
          -248 63 callsubr
          282 hlineto
          36 callsubr
          -915 -59 109 hlineto
          28 callgsubr
          406 -83 callgsubr
        </CharString>
        <CharString name="dvGH_MA">
          870 1309 485 335 callgsubr
          -353 -394 rmoveto
          -24 -6 -8 -26 vhcurveto
          -128 -107 callgsubr
          160 hlineto
          -380 -256 rmoveto
          36 callgsubr
          -235 63 callsubr
          649 134 callgsubr
          1037 213 rmoveto
          -1633 -59 109 hlineto
          28 callgsubr
          395 181 callsubr
        </CharString>
        <CharString name="dvGH_NA">
          858 1295 485 rmoveto
          -642 hlineto
          -98 callsubr
          -239 -1 44 callsubr
          -234 63 callsubr
          988 hlineto
          -333 -394 -105 callsubr
          639 196 rmoveto
          -1621 -59 109 hlineto
          28 callgsubr
          394 hlineto
          25 17 5 11 10 hvcurveto
          -11 13 18 -5 25 250 callsubr
        </CharString>
        <CharString name="dvGH_R">
          -211 79 415 rmoveto
          265 callgsubr
          221 hlineto
          -171 -172 rlineto
          215 hlineto
          177 188 rlineto
          47 43 -332 20 callsubr
          100 -68 callsubr
          138 59 -138 -46 callsubr
          119 -68 callsubr
          220 59 -552 -59 113 hlineto
          328 callsubr
          endchar
        </CharString>
        <CharString name="dvGH_RA">
          156 593 188 rmoveto
          -72 callsubr
          -247 20 callsubr
          100 -68 callsubr
          138 59 -138 -46 callsubr
          119 -68 callsubr
          281 hlineto
          36 callsubr
          -919 -59 113 hlineto
          328 callsubr
          -112 vlineto
          265 callgsubr
          223 hlineto
          -171 -172 rlineto
          213 hlineto
          173 184 rlineto
          -107 -98 callgsubr
        </CharString>
        <CharString name="dvGH_YA">
          768 1206 173 -103 callgsubr
          -899 -426 rmoveto
          -85 callsubr
          117 -68 callsubr
          138 59 -138 -46 callsubr
          119 -68 callsubr
          516 6 callgsubr
          157 callsubr
          970 485 rmoveto
          -1532 -59 109 hlineto
          28 callgsubr
          395 53 callgsubr
          -91 callgsubr
        </CharString>
        <CharString name="dvG_BA">
          820 1021 232 callsubr
          -952 hmoveto
          -56 callgsubr
          1139 485 rmoveto
          -1583 -59 -66 callgsubr
          601 -244 vlineto
          143 callgsubr
        </CharString>
        <CharString name="dvG_BHA">
          1105 96 callsubr
          1211 -453 19 callgsubr
          657 309 rmoveto
          -306 -250 -151 174 hlineto
          -44 callsubr
          151 -313 -98 callgsubr
        </CharString>
        <CharString name="dvG_BH_YA">
          1688 34 callgsubr
          2145 -449 115 callsubr
          -28 vhcurveto
          -353 -57 callsubr
          144 195 vlineto
          53 24 23 308 callsubr
          -953 -394 19 callgsubr
          1259 309 rmoveto
          -959 -59 270 hlineto
          26 6 9 callsubr
          -126 283 callgsubr
          -370 174 hlineto
          -44 callsubr
          130 -159 -100 callsubr
          512 -49 callgsubr
          -98 callgsubr
        </CharString>
        <CharString name="dvG_DA">
          732 271 137 rmoveto
          -56 callgsubr
          942 289 248 callgsubr
          -1495 -59 476 -137 -324 vlineto
          -98 callsubr
          -196 -30 callsubr
          510 -78 -300 vlineto
          -53 -24 -23 -53 hvcurveto
          -255 -35 callgsubr
        </CharString>
        <CharString name="dvG_DHA">
          1014 96 callsubr
          1777 hmoveto
          -306 218 callgsubr
          -374 hlineto
          -77 callgsubr
          533 -83 callgsubr
        </CharString>
        <CharString name="dvG_DH_VA">
          1387 34 callgsubr
          2150 hmoveto
          -726 -59 420 -392 hlineto
          -64 callsubr
          -53 -23 -23 -53 hvcurveto
          -239 vlineto
          -24 -8 -9 -26 vhcurveto
          -362 25 callgsubr
          -106 -100 callsubr
          522 -3 callgsubr
        </CharString>
        <CharString name="dvG_DH_YA">
          1602 34 callgsubr
          2059 -449 82 callsubr
          -948 -59 259 290 callgsubr
          157 callsubr
          -354 25 callgsubr
          -106 -100 callsubr
          514 53 callgsubr
          512 45 callsubr
        </CharString>
        <CharString name="dvG_GA">
          1092 1000 137 rmoveto
          -56 callgsubr
          -882 hmoveto
          -56 callgsubr
          1411 485 rmoveto
          -1855 -59 -66 callgsubr
          529 -137 -324 vlineto
          -98 callsubr
          -196 -30 callsubr
          144 107 callgsubr
        </CharString>
        <CharString name="dvG_GHA">
          874 1311 171 rmoveto
          -72 callsubr
          -248 63 callsubr
          282 hlineto
          -1040 -426 rmoveto
          -56 callgsubr
          1193 485 rmoveto
          -1637 -59 -66 callgsubr
          155 vlineto
          28 callgsubr
          406 -83 callgsubr
        </CharString>
        <CharString name="dvG_JA">
          1081 271 137 rmoveto
          -56 callgsubr
          1400 485 rmoveto
          -1844 -59 -66 callgsubr
          862 -78 304 callsubr
          vlineto
          -69 callgsubr
          140 259 callsubr
          vlineto
          endchar
        </CharString>
        <CharString name="dvG_LA">
          1124 271 137 rmoveto
          -56 callgsubr
          1444 485 rmoveto
          -1888 -59 -66 callgsubr
          905 -78 -213 vlineto
          108 callsubr
          -4 hlineto
          -105 callgsubr
          146 -426 201 563 106 hlineto
          endchar
        </CharString>
        <CharString name="dvG_MA">
          1090 1529 485 335 callgsubr
          -353 -394 rmoveto
          -24 -6 -8 -26 vhcurveto
          -128 -107 callgsubr
          160 hlineto
          -905 -289 rmoveto
          -56 callgsubr
          1409 485 rmoveto
          -1853 -59 -66 callgsubr
          520 -78 -303 vlineto
          -53 -24 -23 -53 hvcurveto
          -255 8 callgsubr
        </CharString>
        <CharString name="dvG_NA">
          1061 1165 169 -105 callsubr
          -894 -289 rmoveto
          -56 callgsubr
          1380 485 rmoveto
          -1824 -59 -66 callgsubr
          842 -78 -642 vlineto
          -53 -24 -23 -53 hvcurveto
          -255 8 callsubr
        </CharString>
        <CharString name="dvG_NNA">
          1092 1183 169 -42 callsubr
          394 194 vlineto
          -912 -426 rmoveto
          -56 callgsubr
          1411 485 rmoveto
          -1855 -59 -66 callgsubr
          146 277 callgsubr
          159 107 callgsubr
        </CharString>
        <CharString name="dvG_N_YA">
          1711 1179 223 callsubr
          340 hmoveto
          59 -649 -69 callsubr
          vlineto
          776 -253 -103 callgsubr
          -1877 -426 rmoveto
          -56 callgsubr
          2030 485 rmoveto
          -2474 -59 -66 callgsubr
          1109 vlineto
          -97 callsubr
        </CharString>
        <CharString name="dvG_R">
          103 callsubr
          230 70 rmoveto
          -465 -360 rlineto
          234 hlineto
          295 254 rlineto
          endchar
        </CharString>
        <CharString name="dvG_RA">
          347 263 176 63 callgsubr
        </CharString>
        <CharString name="dvG_R_YA">
          970 1408 173 -103 callgsubr
          -1145 -387 69 callsubr
          1299 446 rmoveto
          -1734 52 callsubr
          370 385 158 callsubr
          -176 hlineto
          -373 -289 rlineto
          234 hlineto
          204 175 rlineto
          4 4 0 4 hhcurveto
          -91 callgsubr
        </CharString>
        <CharString name="dvG_SA">
          1101 1538 339 rmoveto
          -154 hlineto
          -81 callsubr
          167 hlineto
          -1267 -426 rmoveto
          -56 callgsubr
          1420 485 rmoveto
          -1864 -59 -66 callgsubr
          496 vlineto
          -100 callgsubr
          536 -280 -92 callsubr
          endchar
        </CharString>
        <CharString name="dvG_VA">
          754 271 137 rmoveto
          -56 callgsubr
          1073 485 rmoveto
          -1517 -59 -66 callgsubr
          535 -392 vlineto
          -64 callsubr
          -53 -23 -23 -53 hvcurveto
          -255 -47 callgsubr
        </CharString>
        <CharString name="dvG_YA">
          973 1410 173 -103 callgsubr
          -1139 -426 rmoveto
          -56 callgsubr
          1292 485 rmoveto
          -1736 -59 -66 callgsubr
          371 vlineto
          -97 callsubr
        </CharString>
        <CharString name="dvGx">
          -2 250 -116 -25 callgsubr
          21 124 rmoveto
          -85 callsubr
          165 34 callsubr
          185 -197 104 callsubr
          317 485 rmoveto
          -761 -59 476 -138 -324 hlineto
          -98 callsubr
          -195 -30 callsubr
          85 vlineto
          endchar
        </CharString>
        <CharString name="dvGxA">
          363 251 -116 -25 callgsubr
          20 124 rmoveto
          -56 callgsubr
          682 485 rmoveto
          -1126 -59 -66 callgsubr
          144 107 callgsubr
        </CharString>
        <CharString name="dvGx_R">
          103 callsubr
          294 -36 rmoveto
          -64 106 -465 -360 rlineto
          234 hlineto
          -40 -195 345 callgsubr
        </CharString>
        <CharString name="dvGx_RA">
          324 603 -292 -25 callgsubr
          -340 339 63 callgsubr
        </CharString>
        <CharString name="dvH">
          -19 811 265 rmoveto
          59 -501 vlineto
          -26 -7 7 26 hvcurveto
          37 -106 callgsubr
          334 137 126 59 -790 -59 464 -78 -290 hlineto
          -98 callsubr
          -54 27 callgsubr
          -145 -100 callsubr
          507 59 -351 -89 callgsubr
          141 246 callgsubr
        </CharString>
        <CharString name="dvHA">
          25 656 103 callgsubr
          112 59 -788 -59 477 293 callgsubr
          -54 27 callgsubr
          -145 -18 callsubr
        </CharString>
        <CharString name="dvHA_mU">
          25 656 103 callgsubr
          112 59 -788 -59 477 -78 -303 vlineto
          213 callsubr
          308 hlineto
          26 8 -9 -24 hvcurveto
          -100 44 callsubr
          -98 hlineto
          -23 -7 8 20 -12 hvcurveto
          -44 76 rlineto
          -187 hlineto
          60 -99 rlineto
          -59 35 21 -5 70 hhcurveto
          334 hlineto
          53 22 22 53 hvcurveto
          134 vlineto
          53 -22 22 -53 vhcurveto
          -301 -89 callgsubr
          131 -68 callsubr
          144 160 callsubr
          -87 188 96 vlineto
          337 callgsubr
          -277 -46 callsubr
          37 -106 callgsubr
          endchar
        </CharString>
        <CharString name="dvHA_mUU">
          25 687 5 rmoveto
          58 -35 -21 6 -70 hhcurveto
          -251 -89 callgsubr
          131 -68 callsubr
          144 160 callsubr
          -90 188 99 vlineto
          337 callgsubr
          -277 -46 callsubr
          37 -106 callgsubr
          346 137 112 59 -788 -59 477 -78 -303 hlineto
          213 callsubr
          19 hlineto
          -1 -5 0 -5 -6 vvcurveto
          -120 282 callsubr
          242 59 -99 hlineto
          140 callgsubr
          84 291 callsubr
        </CharString>
        <CharString name="dvHA_mvR">
          24 656 103 callgsubr
          111 59 -787 -59 477 293 callgsubr
          -51 27 callgsubr
          -188 vlineto
          -53 24 -25 53 vhcurveto
          519 59 -363 hlineto
          -26 -7 11 25 hvcurveto
          182 -68 callsubr
          146 hlineto
          17 12 -4 -13 hvcurveto
          -27 -44 -57 -36 vvcurveto
          -38 23 -16 47 vhcurveto
          169 58 -31 hlineto
          -16 -9 3 11 hvcurveto
          26 45 59 36 vvcurveto
          41 -27 16 -47 vhcurveto
          -285 -46 callsubr
          34 -106 callgsubr
          endchar
        </CharString>
        <CharString name="dvH_LA">
          161 749 103 callgsubr
          155 59 -924 -59 569 -78 -395 vlineto
          -98 callsubr
          -34 27 callgsubr
          -241 -100 callsubr
          619 59 -463 20 callsubr
          237 -68 callsubr
          349 160 callsubr
          -7 -84 vlineto
          -25 -9 -9 -22 -2 hvcurveto
          -3 hlineto
          22 -2 -10 9 -26 hhcurveto
          -146 hlineto
          -32 -13 -13 -31 hvcurveto
          -133 vlineto
          -32 13 -13 32 vhcurveto
          138 38 -57 hlineto
          -15 -4 5 15 hvcurveto
          106 vlineto
          15 4 4 15 vhcurveto
          31 hlineto
          16 4 -4 -15 hvcurveto
          -78 108 78 vlineto
          15 4 4 15 vhcurveto
          48 -183 122 238 hlineto
          337 callgsubr
          -416 234 callgsubr
        </CharString>
        <CharString name="dvH_MA">
          409 846 252 rmoveto
          -171 hlineto
          56 -30 26 -58 vhcurveto
          -277 -46 callsubr
          27 -106 callgsubr
          346 137 190 hlineto
          36 callsubr
          -1172 -59 477 134 callgsubr
          -44 27 callgsubr
          -155 -100 callsubr
          507 59 -351 -89 callgsubr
          151 -68 callsubr
          144 160 callsubr
          -110 188 61 171 -193 -98 callgsubr
        </CharString>
        <CharString name="dvH_NA">
          91 682 103 callgsubr
          152 59 -854 -59 502 -78 -328 vlineto
          -98 callsubr
          -44 27 callgsubr
          -224 -100 callsubr
          534 29 callsubr
          220 -68 callsubr
          257 160 callsubr
          -33 -174 109 callgsubr
          -63 142 47 vlineto
          25 6 callsubr
          74 -107 142 208 hlineto
          337 callgsubr
          -344 -46 callsubr
          27 -106 callgsubr
          endchar
        </CharString>
        <CharString name="dvH_NNA">
          157 426 285 rmoveto
          78 -103 hlineto
          -16 -3 -3 -17 vhcurveto
          -38 hlineto
          -17 -3 3 16 hvcurveto
          318 244 rmoveto
          137 156 59 -920 -59 564 -78 -390 vlineto
          -98 callsubr
          -34 27 callgsubr
          255 callgsubr
          613 59 -457 -89 callgsubr
          161 -68 callsubr
          34 -114 hlineto
          -47 20 -20 47 vhcurveto
          108 hlineto
          46 21 20 47 hvcurveto
          114 31 vlineto
          26 7 -9 -24 hvcurveto
          -97 157 106 vlineto
          337 callgsubr
          -409 234 callgsubr
        </CharString>
        <CharString name="dvH_RA">
          101 739 103 callgsubr
          105 59 -864 -59 559 -78 -385 vlineto
          -98 callsubr
          -47 227 callgsubr
          -152 -100 callsubr
          577 59 -421 -89 callgsubr
          147 -68 callsubr
          161 hlineto
          -108 -139 rlineto
          88 hlineto
          102 135 rlineto
          7 -5 3 -9 -15 vvcurveto
          -103 189 113 vlineto
          56 -31 26 -58 vhcurveto
          -353 -46 callsubr
          31 -106 callgsubr
          endchar
        </CharString>
        <CharString name="dvH_VA">
          82 723 103 callgsubr
          102 59 -845 -59 543 -78 -369 vlineto
          -98 callsubr
          -33 vlineto
          -45 20 -20 43 vhcurveto
          -4 vlineto
          -43 -1 -20 -19 -45 vvcurveto
          -227 -100 callsubr
          580 59 -424 hlineto
          -26 -7 11 25 hvcurveto
          218 -68 callsubr
          255 hlineto
          26 7 -8 -25 hvcurveto
          -133 vlineto
          -16 -5 -5 -16 vhcurveto
          -106 hlineto
          -16 -4 4 15 hvcurveto
          67 vlineto
          16 4 4 16 vhcurveto
          92 36 -172 hlineto
          -32 -15 -14 -33 hvcurveto
          -85 vlineto
          -31 15 -15 32 vhcurveto
          187 hlineto
          9 7 2 4 4 hvcurveto
          -39 131 233 vlineto
          56 -30 26 -58 vhcurveto
          -331 234 callgsubr
        </CharString>
        <CharString name="dvH_YA">
          410 847 222 rmoveto
          -72 callsubr
          -139 hlineto
          9 6 5 11 19 vvcurveto
          42 vlineto
          337 callgsubr
          -290 hlineto
          -26 -7 6 26 hvcurveto
          13 -106 callgsubr
          359 137 178 hlineto
          36 callsubr
          -1173 -59 489 -78 -315 hlineto
          -98 callsubr
          -29 227 callgsubr
          -170 -100 callsubr
          532 59 -376 -89 callgsubr
          166 -68 callsubr
          157 160 callsubr
          -37 -92 callgsubr
          -61 -59 409 -91 callsubr
          -139 200 564 106 vlineto
          endchar
        </CharString>
        <CharString name="dvI">
          12 655 103 callgsubr
          100 59 -775 84 callgsubr
        </CharString>
        <CharString name="dvII">
          13 656 103 callgsubr
          100 59 -120 126 34 callsubr
          75 59 -232 -23 callsubr
          -141 -455 84 callgsubr
        </CharString>
        <CharString name="dvII_Anusvara">
          13 623 760 rmoveto
          24 8 9 26 vhcurveto
          94 59 -254 324 callsubr
          -155 -441 -59 474 -78 -312 109 callgsubr
          -68 -74 callsubr
          296 hlineto
          -63 callgsubr
          -62 30 callgsubr
          -159 53 -209 -190 209 78 316 -102 callgsubr
          94 -73 callsubr
          -296 -46 callsubr
          36 -68 callsubr
          355 137 101 59 -133 hlineto
          58 133 rmoveto
          -94 95 94 vlineto
          endchar
        </CharString>
        <CharString name="dvJ">
          -4 797 3 callsubr
          -817 -59 817 hlineto
          74 -78 rmoveto
          -415 -37 callgsubr
          222 vlineto
          endchar
        </CharString>
        <CharString name="dvJA">
          352 1095 3 callsubr
          -1115 -59 809 -78 -333 -37 callgsubr
          140 259 callsubr
          vlineto
          endchar
        </CharString>
        <CharString name="dvJH">
          1 891 331 rmoveto
          -586 hlineto
          61 callgsubr
          139 59 -817 11 callsubr
          227 hlineto
          endchar
        </CharString>
        <CharString name="dvJHA">
          380 817 331 rmoveto
          -512 hlineto
          61 callgsubr
          159 hlineto
          36 callsubr
          -1143 -59 479 -78 -311 129 callgsubr
          277 246 callsubr
          -69 vlineto
          -26 311 callgsubr
          -152 53 -206 -190 206 78 309 146 callgsubr
          160 -272 154 callsubr
        </CharString>
        <CharString name="dvJH_MA">
          1112 1551 485 335 callgsubr
          -353 -394 rmoveto
          -24 -6 -8 -26 vhcurveto
          -128 -107 callgsubr
          160 hlineto
          -380 -95 rmoveto
          -513 hlineto
          61 callgsubr
          540 134 callgsubr
          1037 213 rmoveto
          -1875 11 callsubr
          154 -118 hlineto
          -1 callsubr
        </CharString>
        <CharString name="dvJH_NA">
          1087 1524 485 rmoveto
          -642 hlineto
          -98 callsubr
          -78 -500 vlineto
          61 callgsubr
          866 hlineto
          -333 -394 -105 callsubr
          639 196 rmoveto
          -1850 11 callsubr
          141 -118 hlineto
          -1 callgsubr
        </CharString>
        <CharString name="dvJH_R">
          64 660 255 rmoveto
          180 callsubr
          291 59 -643 hlineto
          61 callgsubr
          147 59 -827 131 callgsubr
          285 89 rmoveto
          -454 -340 rlineto
          235 hlineto
          235 198 rlineto
          endchar
        </CharString>
        <CharString name="dvJH_RA">
          420 868 331 rmoveto
          -561 hlineto
          61 callgsubr
          208 hlineto
          295 59 rmoveto
          -1183 131 callgsubr
          101 vlineto
          6 0 6 -1 5 vhcurveto
          209 -84 hlineto
          -377 -285 rlineto
          235 hlineto
          156 133 rlineto
          0 -6 -51 -47 vvcurveto
          -19 181 644 106 vlineto
          endchar
        </CharString>
        <CharString name="dvJH_YA">
          1003 1440 173 -103 callgsubr
          -630 -232 rmoveto
          -505 hlineto
          61 callgsubr
          399 6 callgsubr
          hlineto
          936 254 rmoveto
          -1766 11 callsubr
          146 -118 -78 callgsubr
        </CharString>
        <CharString name="dvJ_BA">
          820 1020 137 75 callsubr
          -1582 -59 1276 212 callsubr
          -753 -37 callgsubr
          140 vlineto
          -41 callsubr
          -51 callgsubr
          359 -83 callgsubr
        </CharString>
        <CharString name="dvJ_DA">
          734 1368 172 callsubr
          -1497 -59 1188 -78 -712 -316 vlineto
          -69 callgsubr
          143 vlineto
          -41 callsubr
          -255 -35 callgsubr
        </CharString>
        <CharString name="dvJ_DDA">
          715 1350 172 callsubr
          -1479 -59 1170 -78 -694 -316 vlineto
          -69 callgsubr
          145 74 callsubr
        </CharString>
        <CharString name="dvJ_JA">
          1074 1817 3 callsubr
          -1837 -59 1531 -78 -333 -316 hlineto
          122 callsubr
          145 -272 38 callgsubr
        </CharString>
        <CharString name="dvJ_JHA">
          1101 1538 331 rmoveto
          -513 -46 callsubr
          29 -68 callsubr
          354 137 159 hlineto
          36 callsubr
          -1864 -59 1199 -78 -723 -37 callgsubr
          144 vlineto
          -41 callsubr
          -61 -100 callsubr
          280 callsubr
          -69 30 callgsubr
          -153 53 -206 -190 206 78 310 146 callgsubr
          160 -272 154 callsubr
        </CharString>
        <CharString name="dvJ_J_NYA">
          1064 1807 3 callsubr
          -1827 -59 1521 -78 -1045 -37 callgsubr
          142 vlineto
          -41 callsubr
          32 callsubr
          -267 hlineto
          207 callsubr
          478 -426 154 callsubr
        </CharString>
        <CharString name="dvJ_J_VA">
          1465 2208 3 callsubr
          -2228 -59 1922 -392 hlineto
          -84 callgsubr
          -674 -316 hlineto
          85 callgsubr
          133 vlineto
          -41 callsubr
          -255 -47 callgsubr
        </CharString>
        <CharString name="dvJ_J_YA">
          1711 1518 426 rmoveto
          59 -340 -316 vlineto
          85 callgsubr
          vlineto
          777 -253 -43 callgsubr
          -2474 -59 1785 hlineto
          -97 callsubr
        </CharString>
        <CharString name="dvJ_KA">
          1094 1836 563 rmoveto
          59 -1856 -59 1192 91 callgsubr
          -666 -37 callgsubr
          145 vlineto
          -41 callsubr
          -255 -95 callsubr
          112 -67 callgsubr
          -225 vlineto
          -24 -7 -8 24 callgsubr
          255 -73 callsubr
          -271 -27 callsubr
        </CharString>
        <CharString name="dvJ_MA">
          1087 1525 485 335 callgsubr
          -353 -394 rmoveto
          -24 -6 -8 -26 vhcurveto
          -128 -107 callgsubr
          160 hlineto
          657 196 rmoveto
          -1849 -59 1192 -78 -716 -37 callgsubr
          144 vlineto
          -41 callsubr
          -255 8 callgsubr
        </CharString>
        <CharString name="dvJ_NA">
          1066 1169 25 callsubr
          -1828 -59 1522 -78 -1046 -37 callgsubr
          135 vlineto
          -41 callsubr
          -255 8 callsubr
        </CharString>
        <CharString name="dvJ_NY">
          -7 789 3 callsubr
          -809 -59 809 hlineto
          107 -137 rmoveto
          59 -743 vlineto
          -98 callsubr
          32 callsubr
          -267 hlineto
          207 callsubr
          endchar
        </CharString>
        <CharString name="dvJ_NYA">
          350 1093 3 callsubr
          -1113 -59 807 -78 -634 hlineto
          -98 callsubr
          32 callsubr
          -267 hlineto
          207 callsubr
          478 -426 154 callsubr
        </CharString>
        <CharString name="dvJ_NY_YA">
          974 309 323 rmoveto
          207 callsubr
          483 59 -639 hlineto
          -98 callsubr
          32 callsubr
          844 -150 -43 callgsubr
          -1746 -59 1057 hlineto
          -97 callsubr
        </CharString>
        <CharString name="dvJ_R">
          117 callsubr
          803 197 292 callsubr
          331 274 rlineto
          endchar
        </CharString>
        <CharString name="dvJ_RA">
          344 1087 3 callsubr
          -1107 -59 811 -78 -337 -277 hlineto
          94 callgsubr
          420 84 callsubr
        </CharString>
        <CharString name="dvJ_TA">
          780 1523 3 callsubr
          -1543 -59 1239 -78 -763 -37 callgsubr
          145 vlineto
          -41 callsubr
          -333 -40 callsubr
        </CharString>
        <CharString name="dvJ_TTA">
          729 1354 426 298 callsubr
          -1492 -59 1174 -78 -698 166 callgsubr
          vlineto
          -41 callsubr
          -333 -60 callsubr
        </CharString>
        <CharString name="dvJ_VA">
          753 1496 3 callsubr
          -1516 -59 1210 -392 hlineto
          -84 callgsubr
          -684 -37 callgsubr
          143 vlineto
          -41 callsubr
          -255 -47 callgsubr
        </CharString>
        <CharString name="dvJ_YA">
          991 798 426 rmoveto
          59 -342 -316 vlineto
          -69 callgsubr
          vlineto
          779 -253 0 callsubr
          -1754 -59 1065 hlineto
          -97 callsubr
        </CharString>
        <CharString name="dvJx">
          -12 789 3 callsubr
          -809 -59 809 hlineto
          -526 -679 -25 callgsubr
          608 472 rmoveto
          -415 -37 callgsubr
          222 vlineto
          endchar
        </CharString>
        <CharString name="dvJxA">
          352 260 -116 -25 callgsubr
          835 609 rmoveto
          -1115 -59 809 -78 -333 -37 callgsubr
          140 259 callsubr
          vlineto
          endchar
        </CharString>
        <CharString name="dvJx_JxA">
          1075 263 -116 -25 callgsubr
          719 -129 -25 callgsubr
          836 609 rmoveto
          -1838 -59 1532 48 callgsubr
          -533 166 callgsubr
          -272 38 callgsubr
        </CharString>
        <CharString name="dvJx_R">
          117 callsubr
          3 -187 -25 callgsubr
          800 255 292 callsubr
          331 274 rlineto
          endchar
        </CharString>
        <CharString name="dvJx_RA">
          339 148 -85 -25 callgsubr
          939 578 rmoveto
          -1107 -59 811 -78 -337 -277 hlineto
          94 callgsubr
          420 84 callsubr
        </CharString>
        <CharString name="dvJx_YA">
          984 262 -143 -25 callgsubr
          530 440 rmoveto
          59 -336 -316 vlineto
          -69 callgsubr
          vlineto
          773 -253 rmoveto
          -27 -10 10 callgsubr
          -9 6 vhcurveto
          165 hlineto
          305 59 rmoveto
          -1747 -59 1058 hlineto
          -82 callsubr
          -246 -214 hlineto
          239 callsubr
          -89 195 callgsubr
        </CharString>
        <CharString name="dvK">
          9 676 485 172 callgsubr
          145 59 -809 -59 464 -392 vlineto
          -99 callgsubr
          -255 -95 callsubr
          224 59 hlineto
          endchar
        </CharString>
        <CharString name="dvKA">
          365 1108 563 rmoveto
          59 -1128 -59 464 -392 vlineto
          -99 callgsubr
          -255 -95 callsubr
          112 -67 callgsubr
          -225 vlineto
          -24 -7 -8 24 callgsubr
          255 -73 callsubr
          -271 -27 callsubr
        </CharString>
        <CharString name="dvKH">
          288 273 223 rmoveto
          254 hlineto
          80 callgsubr
          447 59 -1071 -59 426 -249 vlineto
          68 callsubr
          -201 -371 hlineto
          210 callsubr
          639 88 rmoveto
          -8 callgsubr
          373 59 hlineto
          endchar
        </CharString>
        <CharString name="dvKHA">
          631 1374 622 48 callsubr
        </CharString>
        <CharString name="dvKH_KHA">
          1636 2379 3 callsubr
          -2399 -77 callsubr
          807 -249 vlineto
          68 callsubr
          -201 -247 274 callsubr
          -132 -29 callgsubr
          272 hlineto
          11 164 callsubr
          -47 vlineto
          128 callgsubr
          467 -349 vlineto
          -27 -9 -8 -27 vhcurveto
          -123 hlineto
          -8 callgsubr
          261 hlineto
          16 11 3 8 7 hvcurveto
          -131 197 114 callgsubr
        </CharString>
        <CharString name="dvKH_MA">
          1364 1803 485 rmoveto
          -153 78 153 hlineto
          -353 -394 -105 callsubr
          657 196 rmoveto
          -2127 -77 callsubr
          846 293 callgsubr
          -197 44 callsubr
          -124 -29 callgsubr
          264 230 callsubr
          24 -14 42 251 callgsubr
        </CharString>
        <CharString name="dvKH_NA">
          1361 1465 25 callsubr
          -2124 -77 callsubr
          1194 -78 -643 109 callgsubr
          -197 44 callsubr
          -133 hlineto
          -8 callgsubr
          273 230 callsubr
          23 -14 42 hhcurveto
          427 -75 callsubr
        </CharString>
        <CharString name="dvKH_R">
          118 callgsubr
          639 95 127 callsubr
        </CharString>
        <CharString name="dvKH_RA">
          631 1374 3 callsubr
          -1394 -59 426 -243 104 callsubr
          -101 159 -201 -371 -2 callsubr
        </CharString>
        <CharString name="dvKH_SHA">
          1365 273 223 rmoveto
          254 hlineto
          80 callgsubr
          347 59 -971 -2 callgsubr
        </CharString>
        <CharString name="dvKH_TA">
          1050 1793 3 callsubr
          -1813 -77 callsubr
          884 -78 -349 109 callgsubr
          -197 44 callsubr
          -117 308 callgsubr
          106 59 -242 305 callgsubr
          257 hlineto
          12 164 callsubr
          -47 61 callsubr
          303 vlineto
          24 7 8 26 vhcurveto
          192 -426 199 127 callgsubr
        </CharString>
        <CharString name="dvKH_VA">
          1032 1775 3 callsubr
          -1795 -77 callsubr
          865 -392 vlineto
          -64 callsubr
          -53 -23 -23 -53 hvcurveto
          -197 44 callsubr
          -124 -29 callgsubr
          264 230 callsubr
          261 callgsubr
        </CharString>
        <CharString name="dvKH_YA">
          1263 1700 173 5 callsubr
        </CharString>
        <CharString name="dvKHx">
          276 405 -194 -25 callgsubr
          -132 288 rmoveto
          254 hlineto
          80 callgsubr
          434 59 -1058 -59 426 -249 vlineto
          68 callsubr
          -201 -371 hlineto
          210 callsubr
          639 88 rmoveto
          -8 callgsubr
          361 59 hlineto
          endchar
        </CharString>
        <CharString name="dvKHxA">
          631 423 -194 -25 callgsubr
          951 687 48 callsubr
        </CharString>
        <CharString name="dvKHx_MA">
          1365 139 callsubr
          1398 567 335 callgsubr
          -352 85 callsubr
          657 196 rmoveto
          -2128 -77 callsubr
          847 -78 -304 109 callgsubr
          -197 44 callsubr
          75 callgsubr
          9 hvcurveto
          -32 8 23 -14 42 hhcurveto
          145 callgsubr
          195 callgsubr
        </CharString>
        <CharString name="dvKHx_R">
          118 callgsubr
          601 -355 -25 callgsubr
          38 321 127 callsubr
        </CharString>
        <CharString name="dvKHx_RA">
          616 863 -264 -25 callgsubr
          511 757 rmoveto
          -1394 -59 426 -243 104 callsubr
          -101 159 -201 -371 -2 callsubr
        </CharString>
        <CharString name="dvKHx_SA">
          1369 139 callsubr
          1401 421 rmoveto
          -154 hlineto
          -81 callsubr
          167 hlineto
          36 callsubr
          -2132 -77 callsubr
          816 vlineto
          -50 callgsubr
          -150 137 -200 -276 116 callgsubr
          429 15 callgsubr
          -200 -123 -92 callgsubr
          -116 hlineto
          -26 -7 8 24 hvcurveto
          189 536 -280 -92 callsubr
          endchar
        </CharString>
        <CharString name="dvKHx_SHA">
          1365 139 callsubr
          -132 305 rmoveto
          254 hlineto
          80 callgsubr
          360 59 -984 -2 callgsubr
        </CharString>
        <CharString name="dvKHx_TA">
          1050 139 callsubr
          1388 704 rmoveto
          -1813 -77 callsubr
          885 -78 -349 vlineto
          -98 callsubr
          -197 44 callsubr
          -117 308 callgsubr
          106 59 -242 305 callgsubr
          257 hlineto
          12 266 callsubr
          231 59 -75 -53 callgsubr
          193 276 callsubr
          127 callgsubr
        </CharString>
        <CharString name="dvKHx_VA">
          1033 139 callsubr
          1371 704 rmoveto
          -1796 -77 callsubr
          866 -392 vlineto
          194 callsubr
          -209 334 callgsubr
          75 callgsubr
          8 hvcurveto
          -32 9 261 callgsubr
        </CharString>
        <CharString name="dvKHx_YA">
          1263 139 callsubr
          1295 255 5 callsubr
        </CharString>
        <CharString name="dvK_CA">
          837 1274 171 rmoveto
          151 callgsubr
          -468 -58 callsubr
          630 275 callsubr
          -1600 -59 464 -392 hlineto
          -99 callgsubr
          -255 -95 callsubr
          151 259 callgsubr
          -236 -100 callsubr
          351 -93 callgsubr
          199 563 107 vlineto
          endchar
        </CharString>
        <CharString name="dvK_DA">
          739 1173 485 rmoveto
          -497 -58 callsubr
          529 vlineto
          200 -137 248 callgsubr
          -1502 -59 464 -392 vlineto
          -99 callgsubr
          -255 -95 callsubr
          119 hlineto
          -41 callsubr
          -255 -35 callgsubr
        </CharString>
        <CharString name="dvK_JA">
          1094 1531 485 rmoveto
          38 callsubr
          -332 280 callgsubr
          887 275 callsubr
          -1857 -59 464 -392 hlineto
          -99 callgsubr
          -255 -95 callsubr
          136 -272 hlineto
          -21 callgsubr
        </CharString>
        <CharString name="dvK_KA">
          1105 1184 171 rmoveto
          -96 callsubr
          -458 -58 callsubr
          540 vlineto
          329 callgsubr
          -1868 -59 464 -392 vlineto
          -99 callgsubr
          -255 -95 callsubr
          128 hlineto
          -41 callsubr
          -255 -95 callsubr
          112 -67 callgsubr
          -225 vlineto
          -24 -7 -8 24 callgsubr
          255 -73 callsubr
          -271 -27 callsubr
        </CharString>
        <CharString name="dvK_KHA">
          1375 1150 314 324 callgsubr
          -101 203 -340 -58 callsubr
          506 vlineto
          968 59 rmoveto
          -2138 -59 464 -392 hlineto
          -99 callgsubr
          -255 -95 callsubr
          138 -350 hlineto
          -74 callgsubr
          535 59 -377 hlineto
          -26 -8 -89 callsubr
          132 255 113 callsubr
          264 467 -349 248 callsubr
          -122 -89 callgsubr
          153 -106 callgsubr
          113 59 -249 89 callgsubr
          15 11 3 7 7 hvcurveto
          -130 271 callgsubr
        </CharString>
        <CharString name="dvK_LA">
          1123 1559 485 rmoveto
          70 callsubr
          -534 -58 callsubr
          915 vlineto
          307 59 rmoveto
          -1886 -59 464 -392 hlineto
          -99 callgsubr
          -255 -95 callsubr
          124 hlineto
          -41 callsubr
          -14 callsubr
        </CharString>
        <CharString name="dvK_MA">
          1097 1536 485 335 callgsubr
          -353 -394 rmoveto
          -24 -6 -8 -26 vhcurveto
          -128 -107 callgsubr
          160 hlineto
          59 vmoveto
          -507 -58 callsubr
          539 vlineto
          657 59 rmoveto
          -1860 -59 464 -392 hlineto
          -99 callgsubr
          -255 -95 callsubr
          126 hlineto
          -41 callsubr
          -255 8 callgsubr
        </CharString>
        <CharString name="dvK_NA">
          1081 1518 485 rmoveto
          -842 -58 callsubr
          874 vlineto
          -333 -394 -105 callsubr
          639 196 rmoveto
          -1844 -59 464 -392 hlineto
          -99 callgsubr
          -255 -95 callsubr
          122 hlineto
          -41 callsubr
          -255 8 callsubr
        </CharString>
        <CharString name="dvK_NNA">
          1094 1186 169 -42 callsubr
          394 194 vlineto
          -510 -78 172 callgsubr
          161 -78 vlineto
          1033 137 rmoveto
          -1858 -59 464 -392 hlineto
          -99 callgsubr
          -255 -95 callsubr
          127 -272 hlineto
          228 callgsubr
          159 107 callgsubr
        </CharString>
        <CharString name="dvK_PA">
          767 1205 -34 callsubr
          -529 -78 172 callgsubr
          171 -78 vlineto
          696 137 rmoveto
          -1531 -59 464 -392 hlineto
          -99 callgsubr
          -255 -95 callsubr
          137 -272 106 callsubr
        </CharString>
        <CharString name="dvK_PHA">
          1125 1205 -34 callsubr
          -529 -78 172 callgsubr
          171 -78 vlineto
          1054 78 rmoveto
          59 -1889 -59 464 -392 vlineto
          -99 callgsubr
          -255 -95 callsubr
          137 -272 hlineto
          -103 callsubr
          -90 callsubr
        </CharString>
        <CharString name="dvK_P_RA">
          764 1201 33 callsubr
          -525 -78 172 callgsubr
          168 -78 vlineto
          695 137 rmoveto
          -1527 -59 464 -392 hlineto
          -99 callgsubr
          -255 -95 callsubr
          134 -228 112 callsubr
        </CharString>
        <CharString name="dvK_R">
          18 678 485 65 callsubr
        </CharString>
        <CharString name="dvK_RA">
          367 1110 563 rmoveto
          59 -1130 -59 466 -379 vlineto
          -26 -8 -8 -26 vhcurveto
          -112 hlineto
          -26 -7 7 25 hvcurveto
          212 vlineto
          24 7 8 26 vhcurveto
          96 59 -253 hlineto
          -53 -23 -23 -53 hvcurveto
          -242 -18 callgsubr
        </CharString>
        <CharString name="dvK_SA">
          1100 1537 339 rmoveto
          -154 hlineto
          -81 callsubr
          167 hlineto
          -353 -192 339 callsubr
          -325 -58 callsubr
          507 344 callsubr
          -1863 -59 464 -392 hlineto
          -99 callgsubr
          -255 -95 callsubr
          123 -350 hlineto
          -27 callgsubr
        </CharString>
        <CharString name="dvK_SHA">
          1109 881 3 callsubr
          -59 callgsubr
          -61 -129 280 callgsubr
          65 59 -729 -59 464 -392 vlineto
          -99 callgsubr
          -255 -95 callsubr
          326 105 hlineto
          24 8 17 callsubr
          -176 74 callgsubr
          -147 42 -200 -289 hlineto
          -64 callgsubr
          173 98 callsubr
          206 -73 callsubr
          534 hmoveto
          -307 -622 201 127 callgsubr
        </CharString>
        <CharString name="dvK_SS">
          18 305 530 rmoveto
          -45 callsubr
          96 hlineto
          -63 callgsubr
          -137 30 callgsubr
          -95 247 callsubr
          628 -92 rmoveto
          59 -292 vlineto
          -39 callsubr
          endchar
        </CharString>
        <CharString name="dvK_SSA">
          377 467 393 52 callgsubr
          653 92 rmoveto
          -305 -262 -174 hlineto
          -39 callsubr
          533 -301 199 127 callgsubr
        </CharString>
        <CharString name="dvK_SS_MA">
          1097 1535 485 335 callgsubr
          -352 85 callsubr
          -716 -33 52 callgsubr
          1373 92 rmoveto
          -1068 -59 411 -78 -304 -23 callsubr
          -49 -162 vlineto
          -39 callsubr
          521 -147 hlineto
          -53 23 -23 53 vhcurveto
          26 callgsubr
          107 vlineto
          endchar
        </CharString>
        <CharString name="dvK_SS_M_YA">
          1718 2155 173 -103 callgsubr
          -972 85 callsubr
          -716 -33 52 callgsubr
          1994 92 rmoveto
          -1688 -59 410 -78 -304 -23 callsubr
          -49 -162 vlineto
          -39 callsubr
          521 -147 hlineto
          -53 23 58 callgsubr
          272 143 59 -143 78 389 vlineto
          -97 callsubr
        </CharString>
        <CharString name="dvK_SS_VA">
          768 467 393 52 callgsubr
          1044 92 rmoveto
          -742 -59 437 -392 hlineto
          194 callsubr
          -49 -165 vlineto
          -39 callsubr
          524 -147 hlineto
          -103 callsubr
          291 -93 callgsubr
          195 callgsubr
        </CharString>
        <CharString name="dvK_SS_YA">
          985 1422 220 callgsubr
          -360 -89 callgsubr
          136 203 vlineto
          53 23 24 53 hvcurveto
          145 245 callgsubr
          -955 -166 rmoveto
          -26 -7 -7 -26 vhcurveto
          -95 247 callsubr
          133 108 callgsubr
          hlineto
          -63 callgsubr
          1261 92 rmoveto
          -966 -59 280 callsubr
          -133 vlineto
          -11 callsubr
          -400 hlineto
          13 6 6 14 24 vvcurveto
          138 78 callgsubr
          -138 vlineto
          -24 6 -14 13 -6 vhcurveto
          -8 hlineto
          -54 -21 -26 -51 hvcurveto
          -133 -100 callsubr
          304 151 callsubr
          226 -200 -53 vlineto
          -27 -9 -9 -27 vhcurveto
          -145 -46 callsubr
          103 -68 callsubr
          511 -152 244 callgsubr
        </CharString>
        <CharString name="dvK_S_DDA">
          1467 1620 485 rmoveto
          -59 callgsubr
          -70 -151 vlineto
          -81 callsubr
          521 -78 hlineto
          -707 -114 339 callsubr
          -335 -58 callsubr
          517 vlineto
          -63 callgsubr
          907 -104 248 callgsubr
          -2230 -59 464 -392 vlineto
          -99 callgsubr
          -255 -95 callsubr
          133 -61 callgsubr
          543 vlineto
          -19 12 21 -9 33 hhcurveto
          -67 callsubr
        </CharString>
        <CharString name="dvK_S_P_LA">
          2243 2680 485 rmoveto
          237 callsubr
          -239 vlineto
          -24 -8 -9 -26 vhcurveto
          -120 -57 callsubr
          394 944 vlineto
          -1297 -224 rmoveto
          -81 callsubr
          172 -224 hlineto
          -358 32 339 callsubr
          -325 -58 callsubr
          507 vlineto
          -63 callgsubr
          1802 92 rmoveto
          -3006 -59 464 -392 hlineto
          -99 callgsubr
          -255 -95 callsubr
          123 -61 callgsubr
          541 173 callsubr
          273 hlineto
          12 321 callgsubr
          317 136 callsubr
        </CharString>
        <CharString name="dvK_S_P_RA">
          1508 1945 33 callsubr
          -553 -224 rmoveto
          -81 callsubr
          177 -224 hlineto
          -363 32 129 callsubr
          87 1 59 -335 -58 callsubr
          516 vlineto
          -63 callgsubr
          1058 92 rmoveto
          -2271 -59 464 -392 hlineto
          -99 callgsubr
          -255 -95 callsubr
          132 -61 callgsubr
          546 -82 112 callgsubr
        </CharString>
        <CharString name="dvK_S_TA">
          1536 1975 485 rmoveto
          -349 238 callgsubr
          596 hlineto
          -782 171 callsubr
          87 1 59 -335 -58 callsubr
          516 vlineto
          -63 callgsubr
          1086 92 rmoveto
          -2299 -59 464 -392 hlineto
          -99 callgsubr
          -255 -95 callsubr
          132 -61 callgsubr
          539 -204 -40 callsubr
        </CharString>
        <CharString name="dvK_S_TTA">
          1485 1626 294 callsubr
          -157 vlineto
          -81 callsubr
          530 -78 hlineto
          -716 -114 129 callsubr
          87 1 59 -335 -58 callsubr
          516 vlineto
          -63 callgsubr
          916 -104 298 callsubr
          -2247 -59 464 -392 vlineto
          -99 callgsubr
          -255 -95 callsubr
          132 -61 callgsubr
          539 -204 -60 callsubr
        </CharString>
        <CharString name="dvK_TA">
          433 1176 563 rmoveto
          59 -1196 -59 510 -78 -474 -59 85 vlineto
          328 callsubr
          -314 -74 callsubr
          256 59 -99 -89 callgsubr
          303 vlineto
          328 callgsubr
          174 276 callsubr
          392 hlineto
          -28 callsubr
          134 hlineto
          26 7 256 callgsubr
          -7 -8 -26 vhcurveto
          -99 -59 256 146 callsubr
          -293 -27 callsubr
        </CharString>
        <CharString name="dvK_THA">
          1063 1806 3 callsubr
          -305 218 callgsubr
          -428 -89 callgsubr
          123 288 28 callsubr
          -61 -137 280 callgsubr
          68 59 -732 -59 464 -392 vlineto
          -99 callgsubr
          -255 -95 callsubr
          331 105 hlineto
          -35 callsubr
          586 -93 callgsubr
          195 callgsubr
        </CharString>
        <CharString name="dvK_TTA">
          739 1163 485 rmoveto
          -487 -58 callsubr
          519 vlineto
          200 -137 298 callsubr
          -1501 -59 464 -392 vlineto
          -99 callgsubr
          -255 -95 callsubr
          126 hlineto
          -41 callsubr
          -333 -60 callsubr
        </CharString>
        <CharString name="dvK_T_RA">
          815 1253 297 rmoveto
          -43 hlineto
          -119 133 rlineto
          47 -45 -39 8 -76 hhcurveto
          -255 -58 callsubr
          609 vlineto
          305 59 rmoveto
          -1578 -59 464 -392 hlineto
          -99 callgsubr
          -255 -95 callsubr
          118 hlineto
          45 32 -5 -38 37 hvcurveto
          119 -126 -247 -257 rlineto
          230 hlineto
          203 218 rlineto
          38 -218 199 127 callgsubr
        </CharString>
        <CharString name="dvK_T_VA">
          1185 1622 171 rmoveto
          -84 callgsubr
          -896 -58 callsubr
          978 275 callsubr
          -1948 -59 464 -392 hlineto
          -99 callgsubr
          -255 -95 callsubr
          125 hlineto
          -41 callsubr
          -333 61 callsubr
          303 vlineto
          24 7 8 26 vhcurveto
          189 hlineto
          -41 callsubr
          -255 -47 callgsubr
        </CharString>
        <CharString name="dvK_T_YA">
          1452 1889 173 rmoveto
          -27 -9 10 callgsubr
          -9 6 vhcurveto
          164 hlineto
          306 59 rmoveto
          -2215 -59 464 -392 hlineto
          -99 callgsubr
          -255 -95 callsubr
          132 hlineto
          -41 callsubr
          -333 61 callsubr
          303 vlineto
          24 7 8 26 vhcurveto
          218 59 -584 -58 callsubr
          862 vlineto
          80 callsubr
        </CharString>
        <CharString name="dvK_VA">
          763 1200 171 rmoveto
          -84 callgsubr
          -474 -58 callsubr
          556 275 callsubr
          -1526 -59 464 -392 hlineto
          -99 callgsubr
          -255 -95 callsubr
          124 hlineto
          -41 callsubr
          -255 -47 callgsubr
        </CharString>
        <CharString name="dvK_V_YA">
          1408 1845 173 -103 callgsubr
          -819 -426 rmoveto
          -107 callsubr
          117 59 -467 -58 callsubr
          818 158 callsubr
          157 callsubr
          970 485 rmoveto
          -2171 -59 464 -392 hlineto
          -99 callgsubr
          -255 -95 callsubr
          116 hlineto
          -41 callsubr
          -51 callgsubr
          315 53 callgsubr
          -91 callgsubr
        </CharString>
        <CharString name="dvK_YA">
          990 1428 173 -43 callgsubr
          -1754 -59 464 -392 hlineto
          -99 callgsubr
          -255 -95 callsubr
          120 59 -122 -58 callsubr
          401 vlineto
          -97 callsubr
        </CharString>
        <CharString name="dvKx">
          18 84 -116 -25 callgsubr
          592 472 172 callgsubr
          153 59 -817 -59 464 -392 vlineto
          -99 callgsubr
          -255 -95 callsubr
          241 59 hlineto
          endchar
        </CharString>
        <CharString name="dvKxA">
          365 102 -116 -25 callgsubr
          1006 550 rmoveto
          59 -1128 -59 464 -392 vlineto
          -99 callgsubr
          -255 -95 callsubr
          112 -67 callgsubr
          -225 vlineto
          -24 -7 -8 24 callgsubr
          255 -73 callsubr
          -271 -27 callsubr
        </CharString>
        <CharString name="dvKx_BA">
          835 84 -116 -25 callgsubr
          933 413 rmoveto
          207 59 -548 -58 callsubr
          627 -244 vlineto
          287 callsubr
          -245 -50 75 callsubr
          -1597 -59 464 -392 hlineto
          -99 callgsubr
          -255 -95 callsubr
          126 hlineto
          -41 callsubr
          -51 callgsubr
          359 -83 callgsubr
        </CharString>
        <CharString name="dvKx_KxA">
          1110 84 -116 -25 callgsubr
          763 -129 -25 callgsubr
          342 158 rmoveto
          -96 callsubr
          -463 -58 callsubr
          545 vlineto
          329 callgsubr
          -1873 -59 464 -392 vlineto
          -99 callgsubr
          -255 -95 callsubr
          133 hlineto
          -41 callsubr
          -255 -95 callsubr
          112 -67 callgsubr
          -225 vlineto
          -24 -7 -8 24 callgsubr
          255 -73 callsubr
          -271 -27 callsubr
        </CharString>
        <CharString name="dvKx_MA">
          1093 84 -116 -25 callgsubr
          1448 472 335 callgsubr
          -353 -394 rmoveto
          -24 -6 -8 -26 vhcurveto
          -128 -107 callgsubr
          160 hlineto
          59 vmoveto
          -503 -58 callsubr
          535 vlineto
          657 59 rmoveto
          -1856 -59 464 -392 hlineto
          -99 callgsubr
          -255 -95 callsubr
          122 hlineto
          -41 callsubr
          -255 8 callgsubr
        </CharString>
        <CharString name="dvKx_PHA">
          1126 84 -116 -25 callgsubr
          1122 249 callgsubr
          -78 172 callgsubr
          172 -78 vlineto
          1054 78 rmoveto
          59 -1890 -59 464 -392 vlineto
          -99 callgsubr
          -255 -95 callsubr
          138 -272 hlineto
          -103 callsubr
          -90 callsubr
        </CharString>
        <CharString name="dvKx_PHxA">
          1126 84 -132 rmoveto
          195 128 -195 hlineto
          746 -112 -25 callgsubr
          376 249 callgsubr
          -78 172 callgsubr
          172 -78 vlineto
          1054 78 rmoveto
          59 -1890 -59 464 -392 vlineto
          -99 callgsubr
          -255 -95 callsubr
          138 -272 hlineto
          -103 callsubr
          -90 callsubr
        </CharString>
        <CharString name="dvKx_R">
          18 273 -264 -25 callgsubr
          405 620 65 callsubr
        </CharString>
        <CharString name="dvKx_RA">
          367 273 -264 -25 callgsubr
          837 698 rmoveto
          59 -1130 -59 466 -379 vlineto
          -26 -8 -8 -26 vhcurveto
          -112 hlineto
          -26 -7 7 25 hvcurveto
          212 vlineto
          24 7 8 26 vhcurveto
          96 59 -253 hlineto
          -53 -23 -23 -53 hvcurveto
          -242 -18 callgsubr
        </CharString>
        <CharString name="dvKx_TA">
          789 84 -116 -25 callgsubr
          1144 472 rmoveto
          -552 -58 callsubr
          584 vlineto
          304 59 rmoveto
          -1552 -59 464 -392 hlineto
          -99 callgsubr
          -255 -95 callsubr
          125 hlineto
          -41 callsubr
          -333 -40 callsubr
        </CharString>
        <CharString name="dvL">
          30 810 3 callsubr
          -830 -59 830 hlineto
          -193 -78 rmoveto
          108 callsubr
          -4 hlineto
          -105 callgsubr
          202 59 hlineto
          endchar
        </CharString>
        <CharString name="dvLA">
          394 1137 3 callsubr
          -1157 -59 850 -78 -213 hlineto
          -44 -17 -19 -41 -3 hvcurveto
          -4 hlineto
          -105 callgsubr
          146 -426 201 563 106 hlineto
          endchar
        </CharString>
        <CharString name="dvLL">
          322 33 callgsubr
          -923 137 rmoveto
          -59 1085 59 vlineto
          endchar
        </CharString>
        <CharString name="dvLLA">
          322 790 169 rmoveto
          -62 callsubr
          -118 -107 callgsubr
          118 -67 callgsubr
          -351 -225 rmoveto
          -62 callsubr
          -118 -107 callgsubr
          118 -67 callgsubr
          626 169 rmoveto
          59 -1085 -59 660 -78 -52 vlineto
          -44 -18 -18 -42 -1 294 callgsubr
          -310 -23 callsubr
          -255 -74 callsubr
          310 hlineto
          47 19 18 42 2 hvcurveto
          5 hlineto
          -42 1 18 -18 44 hhcurveto
          315 94 callsubr
          -63 78 hlineto
          endchar
        </CharString>
        <CharString name="dvLL_YA">
          1294 33 callgsubr
          828 -312 -43 callgsubr
          -2057 -59 1368 hlineto
          -97 callsubr
        </CharString>
        <CharString name="dvL_BA">
          843 1044 137 75 callsubr
          -1606 -59 1300 212 callsubr
          -344 hlineto
          -3 0 -269 hlineto
          108 callsubr
          -4 hlineto
          -105 callgsubr
          129 hlineto
          -41 callsubr
          -51 callgsubr
          359 -83 callgsubr
        </CharString>
        <CharString name="dvL_BHA">
          1102 691 3 callsubr
          -711 -59 711 hlineto
          497 97 callsubr
          108 34 callsubr
          161 hlineto
          657 313 rmoveto
          -306 -254 -151 178 hlineto
          89 callsubr
          -61 -197 vlineto
          108 callsubr
          -4 hlineto
          -105 callgsubr
          330 105 hlineto
          -104 callsubr
          108 -67 callgsubr
          -163 -304 109 callgsubr
          -138 43 callgsubr
          155 151 -309 -98 callgsubr
        </CharString>
        <CharString name="dvL_DA">
          759 1393 172 callsubr
          -1522 -59 1213 -78 -300 vlineto
          -7 0 -269 hlineto
          108 callsubr
          -4 hlineto
          -105 callgsubr
          133 hlineto
          -41 callsubr
          -255 -35 callgsubr
        </CharString>
        <CharString name="dvL_DDA">
          733 1367 172 callsubr
          -1496 -59 1187 -78 -550 vlineto
          108 callsubr
          -4 hlineto
          -105 callgsubr
          127 hlineto
          -41 callsubr
          -81 -74 callsubr
          -67 callsubr
        </CharString>
        <CharString name="dvL_DDHA">
          769 1372 103 callgsubr
          140 59 -1532 -59 1192 -78 -285 vlineto
          -1 hlineto
          -269 hlineto
          108 callsubr
          -4 hlineto
          -105 callgsubr
          127 hlineto
          -41 callsubr
          -15 callsubr
          endchar
        </CharString>
        <CharString name="dvL_D_RA">
          758 1391 103 callgsubr
          110 59 -1521 -59 1212 -78 -301 vlineto
          -5 0 -269 hlineto
          108 callsubr
          -4 hlineto
          -105 callgsubr
          132 hlineto
          -41 callsubr
          50 callgsubr
        </CharString>
        <CharString name="dvL_GA">
          1141 549 425 rmoveto
          -105 callgsubr
          124 59 -191 hlineto
          108 callsubr
          495 -288 rmoveto
          -56 callgsubr
          682 485 rmoveto
          -1903 -59 1253 -137 -324 hlineto
          -53 -24 -23 -53 hvcurveto
          -196 -30 callsubr
          144 107 callgsubr
        </CharString>
        <CharString name="dvL_HA">
          761 1393 103 callgsubr
          112 59 -1525 -59 1214 -78 -303 vlineto
          -5 0 -269 hlineto
          108 callsubr
          -4 hlineto
          -105 callgsubr
          131 hlineto
          -41 callsubr
          -54 27 callgsubr
          -145 -18 callsubr
        </CharString>
</ttFont>
